<?xml version="1.0" encoding="UTF-8" standalone="no"?>
<!DOCTYPE svg PUBLIC "-//W3C//DTD SVG 1.1//EN"
 "http://www.w3.org/Graphics/SVG/1.1/DTD/svg11.dtd">
<!-- Generated by graphviz version 15.1.0 (20260618.0150)
 -->
<!-- Title: GigShareERD Pages: 1 -->
<svg width="2276pt" height="1225pt"
 viewBox="0.00 0.00 2276.00 1225.00" xmlns="http://www.w3.org/2000/svg" xmlns:xlink="http://www.w3.org/1999/xlink">
<g id="graph0" class="graph" transform="scale(1 1) rotate(0) translate(36 1188.8)">
<title>GigShareERD</title>
<polygon fill="white" stroke="none" points="-36,36 -36,-1188.8 2239.54,-1188.8 2239.54,36 -36,36"/>
<!-- Musician -->
<g id="node1" class="node">
<title>Musician</title>
<polygon fill="#ffe08a" stroke="black" stroke-width="1.4" points="594.02,-421 514.82,-421 514.82,-377.8 594.02,-377.8 594.02,-421"/>
<text xml:space="preserve" text-anchor="middle" x="554.42" y="-394.95" font-family="Helvetica,sans-Serif" font-size="11.00">Musician</text>
</g>
<!-- MemberOf -->
<g id="node6" class="node">
<title>MemberOf</title>
<polygon fill="#f7a8b8" stroke="black" stroke-width="1.2" points="861.94,-572.2 811.42,-543.4 861.94,-514.6 912.46,-543.4 861.94,-572.2"/>
<text xml:space="preserve" text-anchor="middle" x="861.94" y="-538.95" font-family="Helvetica,sans-Serif" font-size="11.00">MemberOf</text>
</g>
<!-- Musician&#45;&#45;MemberOf -->
<g id="edge29" class="edge">
<title>Musician&#45;&#45;MemberOf</title>
<path fill="none" stroke="#8892a0" d="M578.47,-421.68C594.01,-435.74 615.53,-453.44 637.02,-465.4 699.26,-500.02 779.63,-523.47 825.21,-535.04"/>
<text xml:space="preserve" text-anchor="middle" x="690.37" y="-510.28" font-family="Helvetica,sans-Serif" font-size="9.00" fill="#8a4b00">(0,N)</text>
</g>
<!-- m_id -->
<g id="node12" class="node">
<title>m_id</title>
<ellipse fill="#dceefb" stroke="black" cx="861.94" cy="-464.4" rx="50.21" ry="14.4"/>
<text xml:space="preserve" text-anchor="start" x="833.81" y="-460.95" font-family="Helvetica,sans-Serif" text-decoration="underline" font-size="11.00">musician_id</text>
</g>
<!-- Musician&#45;&#45;m_id -->
<g id="edge1" class="edge">
<title>Musician&#45;&#45;m_id</title>
<path fill="none" stroke="#8892a0" d="M594.45,-414.27C607.81,-418.96 622.94,-423.85 637.02,-427.4 697.77,-442.73 769.43,-453.29 815.02,-459.09"/>
</g>
<!-- m_nm -->
<g id="node13" class="node">
<title>m_nm</title>
<ellipse fill="#dceefb" stroke="black" cx="861.94" cy="-399.4" rx="56.98" ry="14.4"/>
<text xml:space="preserve" text-anchor="middle" x="861.94" y="-394.95" font-family="Helvetica,sans-Serif" font-size="11.00">display_name</text>
</g>
<!-- Musician&#45;&#45;m_nm -->
<g id="edge2" class="edge">
<title>Musician&#45;&#45;m_nm</title>
<path fill="none" stroke="#8892a0" d="M594.43,-399.4C647.67,-399.4 743.46,-399.4 804.53,-399.4"/>
</g>
<!-- m_em -->
<g id="node14" class="node">
<title>m_em</title>
<ellipse fill="#dceefb" stroke="black" cx="861.94" cy="-334.4" rx="32.4" ry="14.4"/>
<text xml:space="preserve" text-anchor="middle" x="861.94" y="-329.95" font-family="Helvetica,sans-Serif" font-size="11.00">email</text>
</g>
<!-- Musician&#45;&#45;m_em -->
<g id="edge3" class="edge">
<title>Musician&#45;&#45;m_em</title>
<path fill="none" stroke="#8892a0" d="M594.43,-391.1C656.68,-377.86 777.09,-352.24 832.17,-340.52"/>
</g>
<!-- m_in -->
<g id="node15" class="node">
<title>m_in</title>
<ellipse fill="#dceefb" stroke="black" cx="861.94" cy="-269.4" rx="75.22" ry="14.4"/>
<text xml:space="preserve" text-anchor="middle" x="861.94" y="-264.95" font-family="Helvetica,sans-Serif" font-size="11.00">primary_instrument</text>
</g>
<!-- Musician&#45;&#45;m_in -->
<g id="edge4" class="edge">
<title>Musician&#45;&#45;m_in</title>
<path fill="none" stroke="#8892a0" d="M590.88,-377.25C604.96,-368.91 621.48,-359.69 637.02,-352.4 699.7,-322.99 775.89,-296.63 821.29,-281.85"/>
</g>
<!-- m_ct -->
<g id="node16" class="node">
<title>m_ct</title>
<ellipse fill="#dceefb" stroke="black" cx="861.94" cy="-204.4" rx="44.99" ry="14.4"/>
<text xml:space="preserve" text-anchor="middle" x="861.94" y="-199.95" font-family="Helvetica,sans-Serif" font-size="11.00">home_city</text>
</g>
<!-- Musician&#45;&#45;m_ct -->
<g id="edge5" class="edge">
<title>Musician&#45;&#45;m_ct</title>
<path fill="none" stroke="#8892a0" d="M569.28,-377.35C583.88,-355.6 608.66,-322.63 637.02,-301.4 696.88,-256.59 780.64,-227.46 826.88,-213.69"/>
</g>
<!-- Act -->
<g id="node2" class="node">
<title>Act</title>
<polygon fill="#ffe08a" stroke="black" stroke-width="1.4" points="1122.79,-632 1043.59,-632 1043.59,-588.8 1122.79,-588.8 1122.79,-632"/>
<text xml:space="preserve" text-anchor="middle" x="1083.19" y="-605.95" font-family="Helvetica,sans-Serif" font-size="11.00">Act</text>
</g>
<!-- Performed -->
<g id="node8" class="node">
<title>Performed</title>
<polygon fill="#f7a8b8" stroke="black" stroke-width="1.2" points="1279.74,-750.2 1229.22,-721.4 1279.74,-692.6 1330.26,-721.4 1279.74,-750.2"/>
<text xml:space="preserve" text-anchor="middle" x="1279.74" y="-716.95" font-family="Helvetica,sans-Serif" font-size="11.00">Performed</text>
</g>
<!-- Act&#45;&#45;Performed -->
<g id="edge35" class="edge">
<title>Act&#45;&#45;Performed</title>
<path fill="none" stroke="#8892a0" d="M1123.09,-632.6C1161.9,-654.74 1220.39,-688.11 1253.51,-707.01"/>
<text xml:space="preserve" text-anchor="middle" x="1176.1" y="-667.1" font-family="Helvetica,sans-Serif" font-size="9.00" fill="#8a4b00">(0,N)</text>
</g>
<!-- a_id -->
<g id="node17" class="node">
<title>a_id</title>
<ellipse fill="#dceefb" stroke="black" cx="1279.74" cy="-642.4" rx="32.4" ry="14.4"/>
<text xml:space="preserve" text-anchor="start" x="1265.49" y="-638.95" font-family="Helvetica,sans-Serif" text-decoration="underline" font-size="11.00">act_id</text>
</g>
<!-- Act&#45;&#45;a_id -->
<g id="edge6" class="edge">
<title>Act&#45;&#45;a_id</title>
<path fill="none" stroke="#8892a0" d="M1123.09,-616.8C1160.13,-622.89 1215.08,-631.93 1248.81,-637.48"/>
</g>
<!-- a_nm -->
<g id="node18" class="node">
<title>a_nm</title>
<ellipse fill="#dceefb" stroke="black" cx="1279.74" cy="-577.4" rx="43.95" ry="14.4"/>
<text xml:space="preserve" text-anchor="middle" x="1279.74" y="-572.95" font-family="Helvetica,sans-Serif" font-size="11.00">act_name</text>
</g>
<!-- Act&#45;&#45;a_nm -->
<g id="edge7" class="edge">
<title>Act&#45;&#45;a_nm</title>
<path fill="none" stroke="#8892a0" d="M1123.09,-603.8C1157.02,-598.05 1205.99,-589.74 1239.91,-583.99"/>
</g>
<!-- a_gn -->
<g id="node19" class="node">
<title>a_gn</title>
<ellipse fill="#dceefb" stroke="black" cx="1279.74" cy="-512.4" rx="32.4" ry="14.4"/>
<text xml:space="preserve" text-anchor="middle" x="1279.74" y="-507.95" font-family="Helvetica,sans-Serif" font-size="11.00">genre</text>
</g>
<!-- Act&#45;&#45;a_gn -->
<g id="edge8" class="edge">
<title>Act&#45;&#45;a_gn</title>
<path fill="none" stroke="#8892a0" d="M1123.09,-590.8C1163.46,-570.47 1225.1,-539.42 1257.36,-523.17"/>
</g>
<!-- a_tp -->
<g id="node20" class="node">
<title>a_tp</title>
<ellipse fill="#dceefb" stroke="black" cx="1279.74" cy="-447.4" rx="39.26" ry="14.4"/>
<text xml:space="preserve" text-anchor="middle" x="1279.74" y="-442.95" font-family="Helvetica,sans-Serif" font-size="11.00">act_type</text>
</g>
<!-- Act&#45;&#45;a_tp -->
<g id="edge9" class="edge">
<title>Act&#45;&#45;a_tp</title>
<path fill="none" stroke="#8892a0" d="M1106.91,-588.17C1134.74,-561.39 1183.79,-515.61 1229.22,-480.4 1238.53,-473.19 1249.37,-465.85 1258.53,-459.94"/>
</g>
<!-- Venue -->
<g id="node3" class="node">
<title>Venue</title>
<polygon fill="#ffe08a" stroke="black" stroke-width="1.4" points="2007.79,-1030 1928.59,-1030 1928.59,-986.8 2007.79,-986.8 2007.79,-1030"/>
<text xml:space="preserve" text-anchor="middle" x="1968.19" y="-1003.95" font-family="Helvetica,sans-Serif" font-size="11.00">Venue</text>
</g>
<!-- v_id -->
<g id="node21" class="node">
<title>v_id</title>
<ellipse fill="#dceefb" stroke="black" cx="2149.16" cy="-1138.4" rx="41.35" ry="14.4"/>
<text xml:space="preserve" text-anchor="start" x="2127.41" y="-1134.95" font-family="Helvetica,sans-Serif" text-decoration="underline" font-size="11.00">venue_id</text>
</g>
<!-- Venue&#45;&#45;v_id -->
<g id="edge10" class="edge">
<title>Venue&#45;&#45;v_id</title>
<path fill="none" stroke="#8892a0" d="M1996.02,-1030.43C2021.04,-1050.66 2059.68,-1081.09 2094.79,-1105.4 2105.09,-1112.53 2116.91,-1119.92 2126.8,-1125.89"/>
</g>
<!-- v_nm -->
<g id="node22" class="node">
<title>v_nm</title>
<ellipse fill="#dceefb" stroke="black" cx="2149.16" cy="-1073.4" rx="54.37" ry="14.4"/>
<text xml:space="preserve" text-anchor="middle" x="2149.16" y="-1068.95" font-family="Helvetica,sans-Serif" font-size="11.00">venue_name</text>
</g>
<!-- Venue&#45;&#45;v_nm -->
<g id="edge11" class="edge">
<title>Venue&#45;&#45;v_nm</title>
<path fill="none" stroke="#8892a0" d="M2008.47,-1022.66C2040.67,-1034.36 2085.71,-1050.72 2115.86,-1061.67"/>
</g>
<!-- v_ct -->
<g id="node23" class="node">
<title>v_ct</title>
<ellipse fill="#dceefb" stroke="black" cx="2149.16" cy="-1008.4" rx="32.4" ry="14.4"/>
<text xml:space="preserve" text-anchor="middle" x="2149.16" y="-1003.95" font-family="Helvetica,sans-Serif" font-size="11.00">city</text>
</g>
<!-- Venue&#45;&#45;v_ct -->
<g id="edge12" class="edge">
<title>Venue&#45;&#45;v_ct</title>
<path fill="none" stroke="#8892a0" d="M2008.47,-1008.4C2040.88,-1008.4 2086.29,-1008.4 2116.43,-1008.4"/>
</g>
<!-- v_cp -->
<g id="node24" class="node">
<title>v_cp</title>
<ellipse fill="#dceefb" stroke="black" cx="2149.16" cy="-943.4" rx="38.22" ry="14.4"/>
<text xml:space="preserve" text-anchor="middle" x="2149.16" y="-938.95" font-family="Helvetica,sans-Serif" font-size="11.00">capacity</text>
</g>
<!-- Venue&#45;&#45;v_cp -->
<g id="edge13" class="edge">
<title>Venue&#45;&#45;v_cp</title>
<path fill="none" stroke="#8892a0" d="M2008.47,-994.14C2042.42,-981.8 2090.64,-964.29 2120.63,-953.4"/>
</g>
<!-- v_tp -->
<g id="node25" class="node">
<title>v_tp</title>
<ellipse fill="#dceefb" stroke="black" cx="2149.16" cy="-878.4" rx="49.68" ry="14.4"/>
<text xml:space="preserve" text-anchor="middle" x="2149.16" y="-873.95" font-family="Helvetica,sans-Serif" font-size="11.00">venue_type</text>
</g>
<!-- Venue&#45;&#45;v_tp -->
<g id="edge14" class="edge">
<title>Venue&#45;&#45;v_tp</title>
<path fill="none" stroke="#8892a0" d="M1996.02,-986.37C2021.04,-966.14 2059.68,-935.71 2094.79,-911.4 2104.73,-904.52 2116.09,-897.4 2125.76,-891.54"/>
</g>
<!-- Gig -->
<g id="node4" class="node">
<title>Gig</title>
<polygon fill="#ffe08a" stroke="black" stroke-width="1.4" points="1537.78,-821 1458.58,-821 1458.58,-777.8 1537.78,-777.8 1537.78,-821"/>
<text xml:space="preserve" text-anchor="middle" x="1498.18" y="-794.95" font-family="Helvetica,sans-Serif" font-size="11.00">Gig</text>
</g>
<!-- HostedAt -->
<g id="node7" class="node">
<title>HostedAt</title>
<polygon fill="#f7a8b8" stroke="black" stroke-width="1.2" points="1743.47,-1037.2 1696.67,-1008.4 1743.47,-979.6 1790.27,-1008.4 1743.47,-1037.2"/>
<text xml:space="preserve" text-anchor="middle" x="1743.47" y="-1003.95" font-family="Helvetica,sans-Serif" font-size="11.00">HostedAt</text>
</g>
<!-- Gig&#45;&#45;HostedAt -->
<g id="edge33" class="edge">
<title>Gig&#45;&#45;HostedAt</title>
<path fill="none" stroke="#8892a0" d="M1518.65,-821.5C1548.21,-854.31 1607.08,-916.85 1664.6,-961.4 1681.21,-974.26 1701.58,-986.44 1717.32,-995.18"/>
<text xml:space="preserve" text-anchor="middle" x="1612.23" y="-925.86" font-family="Helvetica,sans-Serif" font-size="9.00" fill="#8a4b00">(1,1)</text>
</g>
<!-- g_id -->
<g id="node26" class="node">
<title>g_id</title>
<ellipse fill="#dceefb" stroke="black" cx="1743.47" cy="-929.4" rx="32.4" ry="14.4"/>
<text xml:space="preserve" text-anchor="start" x="1729.22" y="-925.95" font-family="Helvetica,sans-Serif" text-decoration="underline" font-size="11.00">gig_id</text>
</g>
<!-- Gig&#45;&#45;g_id -->
<g id="edge15" class="edge">
<title>Gig&#45;&#45;g_id</title>
<path fill="none" stroke="#8892a0" d="M1533.94,-821.57C1566.92,-842.16 1618.19,-873.08 1664.6,-896.4 1682.18,-905.23 1702.69,-913.86 1718.25,-920.08"/>
</g>
<!-- g_dt -->
<g id="node27" class="node">
<title>g_dt</title>
<ellipse fill="#dceefb" stroke="black" cx="1743.47" cy="-864.4" rx="39.78" ry="14.4"/>
<text xml:space="preserve" text-anchor="middle" x="1743.47" y="-859.95" font-family="Helvetica,sans-Serif" font-size="11.00">gig_date</text>
</g>
<!-- Gig&#45;&#45;g_dt -->
<g id="edge16" class="edge">
<title>Gig&#45;&#45;g_dt</title>
<path fill="none" stroke="#8892a0" d="M1538.06,-809.95C1557.51,-815.21 1581.42,-821.67 1602.85,-827.4 1639.79,-837.28 1682.27,-848.52 1710.57,-855.99"/>
</g>
<!-- g_dp -->
<g id="node28" class="node">
<title>g_dp</title>
<ellipse fill="#dceefb" stroke="black" cx="1743.47" cy="-799.4" rx="46.56" ry="14.4"/>
<text xml:space="preserve" text-anchor="middle" x="1743.47" y="-794.95" font-family="Helvetica,sans-Serif" font-size="11.00">door_price</text>
</g>
<!-- Gig&#45;&#45;g_dp -->
<g id="edge17" class="edge">
<title>Gig&#45;&#45;g_dp</title>
<path fill="none" stroke="#8892a0" d="M1538.27,-799.4C1581.39,-799.4 1650.7,-799.4 1696.42,-799.4"/>
</g>
<!-- g_vf -->
<g id="node29" class="node">
<title>g_vf</title>
<ellipse fill="#dceefb" stroke="black" cx="1743.47" cy="-734.4" rx="46.04" ry="14.4"/>
<text xml:space="preserve" text-anchor="middle" x="1743.47" y="-729.95" font-family="Helvetica,sans-Serif" font-size="11.00">venue_fee</text>
</g>
<!-- Gig&#45;&#45;g_vf -->
<g id="edge18" class="edge">
<title>Gig&#45;&#45;g_vf</title>
<path fill="none" stroke="#8892a0" d="M1538.27,-788.96C1585.01,-776.47 1662.55,-755.75 1707.43,-743.76"/>
</g>
<!-- g_tf -->
<g id="node30" class="node">
<title>g_tf</title>
<ellipse fill="#dceefb" stroke="black" cx="1743.47" cy="-669.4" rx="62.71" ry="14.4"/>
<text xml:space="preserve" text-anchor="middle" x="1743.47" y="-664.95" font-family="Helvetica,sans-Serif" font-size="11.00">technician_fees</text>
</g>
<!-- Gig&#45;&#45;g_tf -->
<g id="edge19" class="edge">
<title>Gig&#45;&#45;g_tf</title>
<path fill="none" stroke="#8892a0" d="M1533.94,-777.23C1566.92,-756.64 1618.19,-725.72 1664.6,-702.4 1679.3,-695.02 1696.04,-687.78 1710.22,-681.97"/>
</g>
<!-- g_ae -->
<g id="node31" class="node">
<title>g_ae</title>
<ellipse fill="#dceefb" stroke="black" cx="1743.47" cy="-604.4" rx="78.87" ry="14.4"/>
<text xml:space="preserve" text-anchor="middle" x="1743.47" y="-599.95" font-family="Helvetica,sans-Serif" font-size="11.00">additional_expenses</text>
</g>
<!-- Gig&#45;&#45;g_ae -->
<g id="edge20" class="edge">
<title>Gig&#45;&#45;g_ae</title>
<path fill="none" stroke="#8892a0" d="M1526.94,-777.2C1537.48,-768.48 1549.45,-758.22 1559.85,-748.4 1609.17,-701.83 1608.91,-676.13 1664.6,-637.4 1676.42,-629.19 1690.6,-622.42 1703.6,-617.21"/>
</g>
<!-- EarningsReport -->
<g id="node5" class="node">
<title>EarningsReport</title>
<polygon fill="#ffe08a" stroke="black" stroke-width="1.4" points="79.2,-361 0,-361 0,-317.8 79.2,-317.8 79.2,-361"/>
<text xml:space="preserve" text-anchor="middle" x="39.6" y="-340.95" font-family="Helvetica,sans-Serif" font-size="11.00">Earnings</text>
<text xml:space="preserve" text-anchor="middle" x="39.6" y="-328.95" font-family="Helvetica,sans-Serif" font-size="11.00">Report</text>
</g>
<!-- Documents -->
<g id="node9" class="node">
<title>Documents</title>
<polygon fill="#f7a8b8" stroke="black" stroke-width="1.2" points="690.37,-809.2 637.02,-780.4 690.37,-751.6 743.72,-780.4 690.37,-809.2"/>
<text xml:space="preserve" text-anchor="middle" x="690.37" y="-775.95" font-family="Helvetica,sans-Serif" font-size="11.00">Documents</text>
</g>
<!-- EarningsReport&#45;&#45;Documents -->
<g id="edge39" class="edge">
<title>EarningsReport&#45;&#45;Documents</title>
<path fill="none" stroke="#8892a0" d="M43.08,-361.55C51,-420.26 81.49,-579.82 183.95,-644.4 333.66,-738.76 548.09,-768.26 642.13,-776.97"/>
<text xml:space="preserve" text-anchor="middle" x="258.13" y="-713.98" font-family="Helvetica,sans-Serif" font-size="9.00" fill="#8a4b00">(1,1)</text>
</g>
<!-- EarnedBy -->
<g id="node10" class="node">
<title>EarnedBy</title>
<polygon fill="#f7a8b8" stroke="black" stroke-width="1.2" points="423.56,-661.2 375.31,-632.4 423.56,-603.6 471.82,-632.4 423.56,-661.2"/>
<text xml:space="preserve" text-anchor="middle" x="423.56" y="-627.95" font-family="Helvetica,sans-Serif" font-size="11.00">EarnedBy</text>
</g>
<!-- EarningsReport&#45;&#45;EarnedBy -->
<g id="edge41" class="edge">
<title>EarningsReport&#45;&#45;EarnedBy</title>
<path fill="none" stroke="#8892a0" d="M45.96,-361.68C59.45,-412.49 99.86,-536.99 183.95,-595.4 243,-636.41 330.02,-639.08 381.03,-636.37"/>
<text xml:space="preserve" text-anchor="middle" x="131.57" y="-554.71" font-family="Helvetica,sans-Serif" font-size="9.00" fill="#8a4b00">(1,1)</text>
</g>
<!-- SubmittedBy -->
<g id="node11" class="node">
<title>SubmittedBy</title>
<polygon fill="#f7a8b8" stroke="black" stroke-width="1.2" points="258.13,-577.2 199.69,-548.4 258.13,-519.6 316.57,-548.4 258.13,-577.2"/>
<text xml:space="preserve" text-anchor="middle" x="258.13" y="-543.95" font-family="Helvetica,sans-Serif" font-size="11.00">SubmittedBy</text>
</g>
<!-- EarningsReport&#45;&#45;SubmittedBy -->
<g id="edge43" class="edge">
<title>EarningsReport&#45;&#45;SubmittedBy</title>
<path fill="none" stroke="#8892a0" d="M56.98,-361.61C81.98,-394.58 132.22,-457.31 183.95,-501.4 197.97,-513.35 215.25,-524.58 229.49,-533.07"/>
<text xml:space="preserve" text-anchor="middle" x="131.57" y="-461.8" font-family="Helvetica,sans-Serif" font-size="9.00" fill="#8a4b00">(1,1)</text>
</g>
<!-- r_id -->
<g id="node32" class="node">
<title>r_id</title>
<ellipse fill="#dceefb" stroke="black" cx="258.13" cy="-469.4" rx="40.82" ry="14.4"/>
<text xml:space="preserve" text-anchor="start" x="236.75" y="-465.95" font-family="Helvetica,sans-Serif" text-decoration="underline" font-size="11.00">report_id</text>
</g>
<!-- EarningsReport&#45;&#45;r_id -->
<g id="edge21" class="edge">
<title>EarningsReport&#45;&#45;r_id</title>
<path fill="none" stroke="#8892a0" d="M69.37,-361.58C97.52,-382.62 142.14,-414.22 183.95,-436.4 199.09,-444.43 216.58,-452.36 230.66,-458.44"/>
</g>
<!-- r_gu -->
<g id="node33" class="node">
<title>r_gu</title>
<ellipse fill="#dceefb" stroke="black" cx="258.13" cy="-404.4" rx="74.18" ry="14.4"/>
<text xml:space="preserve" text-anchor="middle" x="258.13" y="-399.95" font-family="Helvetica,sans-Serif" font-size="11.00">guarantee_amount</text>
</g>
<!-- EarningsReport&#45;&#45;r_gu -->
<g id="edge22" class="edge">
<title>EarningsReport&#45;&#45;r_gu</title>
<path fill="none" stroke="#8892a0" d="M79.87,-353.43C93.24,-358.06 108.32,-363.12 122.2,-367.4 151.91,-376.56 185.64,-385.81 211.95,-392.77"/>
</g>
<!-- r_dr -->
<g id="node34" class="node">
<title>r_dr</title>
<ellipse fill="#dceefb" stroke="black" cx="258.13" cy="-339.4" rx="57.5" ry="14.4"/>
<text xml:space="preserve" text-anchor="middle" x="258.13" y="-334.95" font-family="Helvetica,sans-Serif" font-size="11.00">door_revenue</text>
</g>
<!-- EarningsReport&#45;&#45;r_dr -->
<g id="edge23" class="edge">
<title>EarningsReport&#45;&#45;r_dr</title>
<path fill="none" stroke="#8892a0" d="M79.81,-339.4C113.45,-339.4 162.35,-339.4 200.28,-339.4"/>
</g>
<!-- r_ms -->
<g id="node35" class="node">
<title>r_ms</title>
<ellipse fill="#dceefb" stroke="black" cx="258.13" cy="-274.4" rx="53.33" ry="14.4"/>
<text xml:space="preserve" text-anchor="middle" x="258.13" y="-269.95" font-family="Helvetica,sans-Serif" font-size="11.00">merch_sales</text>
</g>
<!-- EarningsReport&#45;&#45;r_ms -->
<g id="edge24" class="edge">
<title>EarningsReport&#45;&#45;r_ms</title>
<path fill="none" stroke="#8892a0" d="M79.81,-327.63C120.15,-315.52 182.44,-296.82 221.44,-285.11"/>
</g>
<!-- r_np -->
<g id="node36" class="node">
<title>r_np</title>
<ellipse fill="#dceefb" stroke="black" cx="258.13" cy="-209.4" rx="48.12" ry="14.4"/>
<text xml:space="preserve" text-anchor="middle" x="258.13" y="-204.95" font-family="Helvetica,sans-Serif" font-size="11.00">net_payout</text>
</g>
<!-- EarningsReport&#45;&#45;r_np -->
<g id="edge25" class="edge">
<title>EarningsReport&#45;&#45;r_np</title>
<path fill="none" stroke="#8892a0" d="M70.12,-317.22C98.46,-296.47 142.89,-265.33 183.95,-242.4 198.19,-234.45 214.7,-226.87 228.43,-220.99"/>
</g>
<!-- r_at -->
<g id="node37" class="node">
<title>r_at</title>
<ellipse fill="#dceefb" stroke="black" cx="258.13" cy="-144.4" rx="48.12" ry="14.4"/>
<text xml:space="preserve" text-anchor="middle" x="258.13" y="-139.95" font-family="Helvetica,sans-Serif" font-size="11.00">attendance</text>
</g>
<!-- EarningsReport&#45;&#45;r_at -->
<g id="edge26" class="edge">
<title>EarningsReport&#45;&#45;r_at</title>
<path fill="none" stroke="#8892a0" d="M55.42,-317.34C79.14,-283.43 128.62,-218.17 183.95,-177.4 196.4,-168.22 211.82,-160.8 225.28,-155.34"/>
</g>
<!-- r_cu -->
<g id="node38" class="node">
<title>r_cu</title>
<ellipse fill="#dceefb" stroke="black" cx="258.13" cy="-79.4" rx="39.78" ry="14.4"/>
<text xml:space="preserve" text-anchor="middle" x="258.13" y="-74.95" font-family="Helvetica,sans-Serif" font-size="11.00">currency</text>
</g>
<!-- EarningsReport&#45;&#45;r_cu -->
<g id="edge27" class="edge">
<title>EarningsReport&#45;&#45;r_cu</title>
<path fill="none" stroke="#8892a0" d="M49.25,-317.3C67.66,-272.83 114.79,-171.73 183.95,-112.4 196.33,-101.78 212.68,-93.98 226.78,-88.63"/>
</g>
<!-- r_sa -->
<g id="node39" class="node">
<title>r_sa</title>
<ellipse fill="#dceefb" stroke="black" cx="258.13" cy="-14.4" rx="53.85" ry="14.4"/>
<text xml:space="preserve" text-anchor="middle" x="258.13" y="-9.95" font-family="Helvetica,sans-Serif" font-size="11.00">submitted_at</text>
</g>
<!-- EarningsReport&#45;&#45;r_sa -->
<g id="edge28" class="edge">
<title>EarningsReport&#45;&#45;r_sa</title>
<path fill="none" stroke="#8892a0" d="M45.4,-317.26C58.22,-263.33 98.26,-123.98 183.95,-47.4 194.76,-37.74 208.86,-30.48 221.8,-25.27"/>
</g>
<!-- MemberOf&#45;&#45;Act -->
<g id="edge30" class="edge">
<title>MemberOf&#45;&#45;Act</title>
<path fill="none" stroke="#8892a0" d="M895.76,-553.43C935.18,-565.48 1001.23,-585.66 1043.21,-598.49"/>
<text xml:space="preserve" text-anchor="middle" x="990.28" y="-586.07" font-family="Helvetica,sans-Serif" font-size="9.00" fill="#8a4b00">(1,N)</text>
</g>
<!-- mo_role -->
<g id="node40" class="node">
<title>mo_role</title>
<ellipse fill="#dceefb" stroke="black" cx="1083.19" cy="-538.4" rx="32.4" ry="14.4"/>
<text xml:space="preserve" text-anchor="middle" x="1083.19" y="-533.95" font-family="Helvetica,sans-Serif" font-size="11.00">role</text>
</g>
<!-- MemberOf&#45;&#45;mo_role -->
<g id="edge31" class="edge">
<title>MemberOf&#45;&#45;mo_role</title>
<path fill="none" stroke="#8892a0" d="M911.6,-542.29C953.99,-541.32 1014.21,-539.95 1050.6,-539.12"/>
</g>
<!-- mo_act -->
<g id="node41" class="node">
<title>mo_act</title>
<ellipse fill="#dceefb" stroke="black" cx="1083.19" cy="-473.4" rx="39.78" ry="14.4"/>
<text xml:space="preserve" text-anchor="middle" x="1083.19" y="-468.95" font-family="Helvetica,sans-Serif" font-size="11.00">is_active</text>
</g>
<!-- MemberOf&#45;&#45;mo_act -->
<g id="edge32" class="edge">
<title>MemberOf&#45;&#45;mo_act</title>
<path fill="none" stroke="#8892a0" d="M895.29,-533.07C937.69,-519.53 1011.49,-495.97 1052.52,-482.87"/>
</g>
<!-- HostedAt&#45;&#45;Venue -->
<g id="edge34" class="edge">
<title>HostedAt&#45;&#45;Venue</title>
<path fill="none" stroke="#8892a0" d="M1791.16,-1008.4C1831.72,-1008.4 1889.8,-1008.4 1928,-1008.4"/>
<text xml:space="preserve" text-anchor="middle" x="1875.47" y="-1009.6" font-family="Helvetica,sans-Serif" font-size="9.00" fill="#8a4b00">(0,N)</text>
</g>
<!-- Performed&#45;&#45;Gig -->
<g id="edge36" class="edge">
<title>Performed&#45;&#45;Gig</title>
<path fill="none" stroke="#8892a0" d="M1311.75,-732.58C1350.33,-746.48 1416.21,-770.22 1458.17,-785.34"/>
<text xml:space="preserve" text-anchor="middle" x="1383.39" y="-761.6" font-family="Helvetica,sans-Serif" font-size="9.00" fill="#8a4b00">(1,N)</text>
</g>
<!-- pf_bill -->
<g id="node42" class="node">
<title>pf_bill</title>
<ellipse fill="#dceefb" stroke="black" cx="1498.18" cy="-716.4" rx="45.51" ry="14.4"/>
<text xml:space="preserve" text-anchor="middle" x="1498.18" y="-711.95" font-family="Helvetica,sans-Serif" font-size="11.00">billing_slot</text>
</g>
<!-- Performed&#45;&#45;pf_bill -->
<g id="edge37" class="edge">
<title>Performed&#45;&#45;pf_bill</title>
<path fill="none" stroke="#8892a0" d="M1329.31,-720.28C1366.21,-719.43 1416.55,-718.26 1452.46,-717.43"/>
</g>
<!-- pf_len -->
<g id="node43" class="node">
<title>pf_len</title>
<ellipse fill="#dceefb" stroke="black" cx="1498.18" cy="-651.4" rx="61.67" ry="14.4"/>
<text xml:space="preserve" text-anchor="middle" x="1498.18" y="-646.95" font-family="Helvetica,sans-Serif" font-size="11.00">set_length_min</text>
</g>
<!-- Performed&#45;&#45;pf_len -->
<g id="edge38" class="edge">
<title>Performed&#45;&#45;pf_len</title>
<path fill="none" stroke="#8892a0" d="M1312.68,-711.07C1352.19,-698.29 1419.3,-676.59 1460.77,-663.18"/>
</g>
<!-- Documents&#45;&#45;Gig -->
<g id="edge40" class="edge">
<title>Documents&#45;&#45;Gig</title>
<path fill="none" stroke="#8892a0" d="M732.2,-787.13C789.47,-795.98 897.01,-810.4 989.28,-810.4 989.28,-810.4 989.28,-810.4 1280.74,-810.4 1342.82,-810.4 1414.79,-805.83 1458.11,-802.58"/>
<text xml:space="preserve" text-anchor="middle" x="1083.19" y="-811.6" font-family="Helvetica,sans-Serif" font-size="9.00" fill="#8a4b00">(0,N)</text>
</g>
<!-- EarnedBy&#45;&#45;Act -->
<g id="edge42" class="edge">
<title>EarnedBy&#45;&#45;Act</title>
<path fill="none" stroke="#8892a0" d="M470.29,-630.87C593.06,-626.76 928.39,-615.55 1043.1,-611.71"/>
<text xml:space="preserve" text-anchor="middle" x="690.37" y="-626.43" font-family="Helvetica,sans-Serif" font-size="9.00" fill="#8a4b00">(0,N)</text>
</g>
<!-- SubmittedBy&#45;&#45;Musician -->
<g id="edge44" class="edge">
<title>SubmittedBy&#45;&#45;Musician</title>
<path fill="none" stroke="#8892a0" d="M287.88,-533.84C340.96,-506.97 454.38,-449.54 514.36,-419.17"/>
<text xml:space="preserve" text-anchor="middle" x="423.56" y="-488.45" font-family="Helvetica,sans-Serif" font-size="9.00" fill="#8a4b00">(0,N)</text>
</g>
</g>
</svg>
