<?xml version="1.0" encoding="UTF-8" standalone="no"?>
<!DOCTYPE svg PUBLIC "-//W3C//DTD SVG 1.1//EN"
 "http://www.w3.org/Graphics/SVG/1.1/DTD/svg11.dtd">
<!-- Generated by graphviz version 15.1.0 (20260618.0150)
 -->
<!-- Title: GigShareERD Pages: 1 -->
<svg width="1110pt" height="1721pt"
 viewBox="0.00 0.00 1110.00 1721.00" xmlns="http://www.w3.org/2000/svg" xmlns:xlink="http://www.w3.org/1999/xlink">
<g id="graph0" class="graph" transform="scale(1 1) rotate(0) translate(36 1684.8)">
<title>GigShareERD</title>
<polygon fill="white" stroke="none" points="-36,36 -36,-1684.8 1073.66,-1684.8 1073.66,36 -36,36"/>
<!-- Musician -->
<g id="node1" class="node">
<title>Musician</title>
<polygon fill="#ffe08a" stroke="black" stroke-width="1.4" points="470.89,-1447 391.69,-1447 391.69,-1403.8 470.89,-1403.8 470.89,-1447"/>
<text xml:space="preserve" text-anchor="middle" x="431.29" y="-1420.95" font-family="Helvetica,sans-Serif" font-size="11.00">Musician</text>
</g>
<!-- MemberOf -->
<g id="node9" class="node">
<title>MemberOf</title>
<polygon fill="#f7a8b8" stroke="black" stroke-width="1.2" points="623.61,-1631.2 576.81,-1602.4 623.61,-1573.6 670.41,-1602.4 623.61,-1631.2"/>
<text xml:space="preserve" text-anchor="middle" x="623.61" y="-1598.53" font-family="Helvetica,sans-Serif" font-size="10.00">MemberOf</text>
</g>
<!-- Musician&#45;&#45;MemberOf -->
<g id="edge36" class="edge">
<title>Musician&#45;&#45;MemberOf</title>
<path fill="none" stroke="#8892a0" d="M451.02,-1447.3C474.47,-1474.16 516.48,-1520.4 556.89,-1555.4 570.47,-1567.15 586.9,-1578.9 599.93,-1587.72"/>
<text xml:space="preserve" text-anchor="middle" x="460.52" y="-1465.47" font-family="Helvetica,sans-Serif" font-size="10.00" fill="#8a4b00">(0,N)</text>
</g>
<!-- m_id -->
<g id="node13" class="node">
<title>m_id</title>
<ellipse fill="#dceefb" stroke="black" cx="623.61" cy="-1523.4" rx="45.54" ry="14.4"/>
<text xml:space="preserve" text-anchor="start" x="597.74" y="-1520.53" font-family="Helvetica,sans-Serif" text-decoration="underline" font-size="10.00">musician_id</text>
</g>
<!-- Musician&#45;&#45;m_id -->
<g id="edge1" class="edge">
<title>Musician&#45;&#45;m_id</title>
<path fill="none" stroke="#8892a0" d="M471.5,-1446.05C495.99,-1458.9 528.23,-1475.73 556.89,-1490.4 570.42,-1497.32 585.57,-1504.94 597.91,-1511.11"/>
</g>
<!-- m_nm -->
<g id="node14" class="node">
<title>m_nm</title>
<ellipse fill="#dceefb" stroke="black" cx="623.61" cy="-1458.4" rx="51.09" ry="14.4"/>
<text xml:space="preserve" text-anchor="middle" x="623.61" y="-1454.53" font-family="Helvetica,sans-Serif" font-size="10.00">display_name</text>
</g>
<!-- Musician&#45;&#45;m_nm -->
<g id="edge2" class="edge">
<title>Musician&#45;&#45;m_nm</title>
<path fill="none" stroke="#8892a0" d="M471.27,-1432.16C502.7,-1437.61 546.86,-1445.27 579.38,-1450.9"/>
</g>
<!-- m_em -->
<g id="node15" class="node">
<title>m_em</title>
<ellipse fill="#dceefb" stroke="black" cx="623.61" cy="-1393.4" rx="32.4" ry="14.4"/>
<text xml:space="preserve" text-anchor="middle" x="623.61" y="-1389.53" font-family="Helvetica,sans-Serif" font-size="10.00">email</text>
</g>
<!-- Musician&#45;&#45;m_em -->
<g id="edge3" class="edge">
<title>Musician&#45;&#45;m_em</title>
<path fill="none" stroke="#8892a0" d="M471.27,-1418.85C507.26,-1412.79 559.97,-1403.93 592.74,-1398.42"/>
</g>
<!-- m_in -->
<g id="node16" class="node">
<title>m_in</title>
<ellipse fill="#dceefb" stroke="black" cx="623.61" cy="-1328.4" rx="66.72" ry="14.4"/>
<text xml:space="preserve" text-anchor="middle" x="623.61" y="-1324.53" font-family="Helvetica,sans-Serif" font-size="10.00">primary_instrument</text>
</g>
<!-- Musician&#45;&#45;m_in -->
<g id="edge4" class="edge">
<title>Musician&#45;&#45;m_in</title>
<path fill="none" stroke="#8892a0" d="M471.53,-1405.13C496.04,-1392.5 528.27,-1375.94 556.89,-1361.4 569.64,-1354.92 583.82,-1347.8 595.73,-1341.83"/>
</g>
<!-- m_ct -->
<g id="node17" class="node">
<title>m_ct</title>
<ellipse fill="#dceefb" stroke="black" cx="623.61" cy="-1263.4" rx="41.01" ry="14.4"/>
<text xml:space="preserve" text-anchor="middle" x="623.61" y="-1259.53" font-family="Helvetica,sans-Serif" font-size="10.00">home_city</text>
</g>
<!-- Musician&#45;&#45;m_ct -->
<g id="edge5" class="edge">
<title>Musician&#45;&#45;m_ct</title>
<path fill="none" stroke="#8892a0" d="M449.41,-1403.58C471.85,-1376 513.5,-1328.31 556.89,-1296.4 568.83,-1287.63 583.44,-1280.03 595.85,-1274.34"/>
</g>
<!-- Venue -->
<g id="node2" class="node">
<title>Venue</title>
<polygon fill="#ffe08a" stroke="black" stroke-width="1.4" points="855.53,-942 776.33,-942 776.33,-898.8 855.53,-898.8 855.53,-942"/>
<text xml:space="preserve" text-anchor="middle" x="815.93" y="-915.95" font-family="Helvetica,sans-Serif" font-size="11.00">Venue</text>
</g>
<!-- v_id -->
<g id="node24" class="node">
<title>v_id</title>
<ellipse fill="#dceefb" stroke="black" cx="989.6" cy="-1050.4" rx="36.97" ry="14.4"/>
<text xml:space="preserve" text-anchor="start" x="970.1" y="-1047.53" font-family="Helvetica,sans-Serif" text-decoration="underline" font-size="10.00">venue_id</text>
</g>
<!-- Venue&#45;&#45;v_id -->
<g id="edge12" class="edge">
<title>Venue&#45;&#45;v_id</title>
<path fill="none" stroke="#8892a0" d="M844.34,-942.37C869.39,-962.3 907.58,-992.31 941.53,-1017.4 950.84,-1024.28 961.38,-1031.7 970.12,-1037.76"/>
</g>
<!-- v_nm -->
<g id="node25" class="node">
<title>v_nm</title>
<ellipse fill="#dceefb" stroke="black" cx="989.6" cy="-985.4" rx="48.06" ry="14.4"/>
<text xml:space="preserve" text-anchor="middle" x="989.6" y="-981.52" font-family="Helvetica,sans-Serif" font-size="10.00">venue_name</text>
</g>
<!-- Venue&#45;&#45;v_nm -->
<g id="edge13" class="edge">
<title>Venue&#45;&#45;v_nm</title>
<path fill="none" stroke="#8892a0" d="M855.88,-935.15C887.05,-946.95 930.1,-963.25 958.61,-974.05"/>
</g>
<!-- v_ct -->
<g id="node26" class="node">
<title>v_ct</title>
<ellipse fill="#dceefb" stroke="black" cx="989.6" cy="-920.4" rx="32.4" ry="14.4"/>
<text xml:space="preserve" text-anchor="middle" x="989.6" y="-916.52" font-family="Helvetica,sans-Serif" font-size="10.00">city</text>
</g>
<!-- Venue&#45;&#45;v_ct -->
<g id="edge14" class="edge">
<title>Venue&#45;&#45;v_ct</title>
<path fill="none" stroke="#8892a0" d="M855.88,-920.4C886.45,-920.4 928.46,-920.4 956.97,-920.4"/>
</g>
<!-- v_cp -->
<g id="node27" class="node">
<title>v_cp</title>
<ellipse fill="#dceefb" stroke="black" cx="989.6" cy="-855.4" rx="35.46" ry="14.4"/>
<text xml:space="preserve" text-anchor="middle" x="989.6" y="-851.52" font-family="Helvetica,sans-Serif" font-size="10.00">capacity</text>
</g>
<!-- Venue&#45;&#45;v_cp -->
<g id="edge15" class="edge">
<title>Venue&#45;&#45;v_cp</title>
<path fill="none" stroke="#8892a0" d="M855.88,-905.65C888.63,-893.25 934.5,-875.88 962.84,-865.15"/>
</g>
<!-- v_tp -->
<g id="node28" class="node">
<title>v_tp</title>
<ellipse fill="#dceefb" stroke="black" cx="989.6" cy="-790.4" rx="44.53" ry="14.4"/>
<text xml:space="preserve" text-anchor="middle" x="989.6" y="-786.52" font-family="Helvetica,sans-Serif" font-size="10.00">venue_type</text>
</g>
<!-- Venue&#45;&#45;v_tp -->
<g id="edge16" class="edge">
<title>Venue&#45;&#45;v_tp</title>
<path fill="none" stroke="#8892a0" d="M844.34,-898.43C869.39,-878.5 907.58,-848.49 941.53,-823.4 950.52,-816.76 960.65,-809.61 969.21,-803.67"/>
</g>
<!-- Gig -->
<g id="node3" class="node">
<title>Gig</title>
<polygon fill="#ffe08a" stroke="black" stroke-width="1.4" points="470.89,-863 391.69,-863 391.69,-819.8 470.89,-819.8 470.89,-863"/>
<text xml:space="preserve" text-anchor="middle" x="431.29" y="-836.95" font-family="Helvetica,sans-Serif" font-size="11.00">Gig</text>
</g>
<!-- HostedAt -->
<g id="node10" class="node">
<title>HostedAt</title>
<polygon fill="#f7a8b8" stroke="black" stroke-width="1.2" points="623.61,-949.2 576.81,-920.4 623.61,-891.6 670.41,-920.4 623.61,-949.2"/>
<text xml:space="preserve" text-anchor="middle" x="623.61" y="-916.52" font-family="Helvetica,sans-Serif" font-size="10.00">HostedAt</text>
</g>
<!-- Gig&#45;&#45;HostedAt -->
<g id="edge40" class="edge">
<title>Gig&#45;&#45;HostedAt</title>
<path fill="none" stroke="#8892a0" d="M471.27,-857.58C508.03,-872.84 562.21,-895.33 594.79,-908.85"/>
<text xml:space="preserve" text-anchor="middle" x="489.51" y="-869.3" font-family="Helvetica,sans-Serif" font-size="10.00" fill="#8a4b00">(1,1)</text>
</g>
<!-- g_id -->
<g id="node29" class="node">
<title>g_id</title>
<ellipse fill="#dceefb" stroke="black" cx="623.61" cy="-841.4" rx="32.4" ry="14.4"/>
<text xml:space="preserve" text-anchor="start" x="610.86" y="-838.52" font-family="Helvetica,sans-Serif" text-decoration="underline" font-size="10.00">gig_id</text>
</g>
<!-- Gig&#45;&#45;g_id -->
<g id="edge17" class="edge">
<title>Gig&#45;&#45;g_id</title>
<path fill="none" stroke="#8892a0" d="M471.27,-841.4C506.61,-841.4 558.07,-841.4 590.94,-841.4"/>
</g>
<!-- g_dt -->
<g id="node30" class="node">
<title>g_dt</title>
<ellipse fill="#dceefb" stroke="black" cx="623.61" cy="-776.4" rx="35.46" ry="14.4"/>
<text xml:space="preserve" text-anchor="middle" x="623.61" y="-772.52" font-family="Helvetica,sans-Serif" font-size="10.00">gig_date</text>
</g>
<!-- Gig&#45;&#45;g_dt -->
<g id="edge18" class="edge">
<title>Gig&#45;&#45;g_dt</title>
<path fill="none" stroke="#8892a0" d="M471.27,-828.09C508.35,-815.42 563.17,-796.7 595.65,-785.61"/>
</g>
<!-- g_dp -->
<g id="node31" class="node">
<title>g_dp</title>
<ellipse fill="#dceefb" stroke="black" cx="623.61" cy="-711.4" rx="41.01" ry="14.4"/>
<text xml:space="preserve" text-anchor="middle" x="623.61" y="-707.52" font-family="Helvetica,sans-Serif" font-size="10.00">door_price</text>
</g>
<!-- Gig&#45;&#45;g_dp -->
<g id="edge19" class="edge">
<title>Gig&#45;&#45;g_dp</title>
<path fill="none" stroke="#8892a0" d="M457.46,-819.41C481.89,-798.66 520.51,-767.39 556.89,-744.4 569.63,-736.35 584.59,-728.71 597.01,-722.82"/>
</g>
<!-- Party -->
<g id="node4" class="node">
<title>Party</title>
<polygon fill="#ffe08a" stroke="black" stroke-width="1.4" points="470.89,-1086 391.69,-1086 391.69,-1042.8 470.89,-1042.8 470.89,-1086"/>
<text xml:space="preserve" text-anchor="middle" x="431.29" y="-1059.95" font-family="Helvetica,sans-Serif" font-size="11.00">Party</text>
</g>
<!-- isa -->
<g id="node8" class="node">
<title>isa</title>
<polygon fill="#ededed" stroke="black" stroke-width="1.1" points="623.61,-1213.4 593.36,-1187.9 653.86,-1187.9 623.61,-1213.4"/>
<text xml:space="preserve" text-anchor="middle" x="623.61" y="-1193.3" font-family="Helvetica,sans-Serif" font-size="8.00">isa</text>
</g>
<!-- Party&#45;&#45;isa -->
<g id="edge33" class="edge">
<title>Party&#45;&#45;isa</title>
<path fill="none" stroke="#8892a0" d="M458.05,-1086.59C482.6,-1107.2 521.02,-1138.13 556.89,-1161.4 572.08,-1171.25 590.31,-1180.79 603.71,-1187.42"/>
</g>
<!-- p_id -->
<g id="node18" class="node">
<title>p_id</title>
<ellipse fill="#dceefb" stroke="black" cx="623.61" cy="-1129.4" rx="33.95" ry="14.4"/>
<text xml:space="preserve" text-anchor="start" x="606.36" y="-1126.53" font-family="Helvetica,sans-Serif" text-decoration="underline" font-size="10.00">party_id</text>
</g>
<!-- Party&#45;&#45;p_id -->
<g id="edge6" class="edge">
<title>Party&#45;&#45;p_id</title>
<path fill="none" stroke="#8892a0" d="M471.27,-1077.71C508.57,-1090.45 563.82,-1109.32 596.22,-1120.39"/>
</g>
<!-- p_nm -->
<g id="node19" class="node">
<title>p_nm</title>
<ellipse fill="#dceefb" stroke="black" cx="623.61" cy="-1064.4" rx="45.04" ry="14.4"/>
<text xml:space="preserve" text-anchor="middle" x="623.61" y="-1060.53" font-family="Helvetica,sans-Serif" font-size="10.00">party_name</text>
</g>
<!-- Party&#45;&#45;p_nm -->
<g id="edge7" class="edge">
<title>Party&#45;&#45;p_nm</title>
<path fill="none" stroke="#8892a0" d="M471.27,-1064.4C502.37,-1064.4 545.95,-1064.4 578.36,-1064.4"/>
</g>
<!-- p_ct -->
<g id="node20" class="node">
<title>p_ct</title>
<ellipse fill="#dceefb" stroke="black" cx="623.61" cy="-999.4" rx="46.55" ry="14.4"/>
<text xml:space="preserve" text-anchor="middle" x="623.61" y="-995.52" font-family="Helvetica,sans-Serif" font-size="10.00">contact_info</text>
</g>
<!-- Party&#45;&#45;p_ct -->
<g id="edge8" class="edge">
<title>Party&#45;&#45;p_ct</title>
<path fill="none" stroke="#8892a0" d="M471.27,-1051.09C506.72,-1038.98 558.38,-1021.34 591.24,-1010.11"/>
</g>
<!-- Act -->
<g id="node5" class="node">
<title>Act</title>
<polygon fill="#ffe08a" stroke="black" stroke-width="1.4" points="855.53,-1424 776.33,-1424 776.33,-1380.8 855.53,-1380.8 855.53,-1424"/>
<text xml:space="preserve" text-anchor="middle" x="815.93" y="-1397.95" font-family="Helvetica,sans-Serif" font-size="11.00">Act</text>
</g>
<!-- a_gn -->
<g id="node21" class="node">
<title>a_gn</title>
<ellipse fill="#dceefb" stroke="black" cx="989.6" cy="-1435.4" rx="32.4" ry="14.4"/>
<text xml:space="preserve" text-anchor="middle" x="989.6" y="-1431.53" font-family="Helvetica,sans-Serif" font-size="10.00">genre</text>
</g>
<!-- Act&#45;&#45;a_gn -->
<g id="edge9" class="edge">
<title>Act&#45;&#45;a_gn</title>
<path fill="none" stroke="#8892a0" d="M855.88,-1409.89C887.34,-1415.94 930.92,-1424.31 959.42,-1429.79"/>
</g>
<!-- a_tp -->
<g id="node22" class="node">
<title>a_tp</title>
<ellipse fill="#dceefb" stroke="black" cx="989.6" cy="-1370.4" rx="35.96" ry="14.4"/>
<text xml:space="preserve" text-anchor="middle" x="989.6" y="-1366.53" font-family="Helvetica,sans-Serif" font-size="10.00">act_type</text>
</g>
<!-- Act&#45;&#45;a_tp -->
<g id="edge10" class="edge">
<title>Act&#45;&#45;a_tp</title>
<path fill="none" stroke="#8892a0" d="M855.88,-1395.14C886.25,-1389.48 927.92,-1381.71 956.41,-1376.4"/>
</g>
<!-- Promoter -->
<g id="node6" class="node">
<title>Promoter</title>
<polygon fill="#ffe08a" stroke="black" stroke-width="1.4" points="855.53,-1218 776.33,-1218 776.33,-1174.8 855.53,-1174.8 855.53,-1218"/>
<text xml:space="preserve" text-anchor="middle" x="815.93" y="-1191.95" font-family="Helvetica,sans-Serif" font-size="11.00">Promoter</text>
</g>
<!-- pr_co -->
<g id="node23" class="node">
<title>pr_co</title>
<ellipse fill="#dceefb" stroke="black" cx="989.6" cy="-1196.4" rx="46.05" ry="14.4"/>
<text xml:space="preserve" text-anchor="middle" x="989.6" y="-1192.53" font-family="Helvetica,sans-Serif" font-size="10.00">is_company</text>
</g>
<!-- Promoter&#45;&#45;pr_co -->
<g id="edge11" class="edge">
<title>Promoter&#45;&#45;pr_co</title>
<path fill="none" stroke="#8892a0" d="M855.88,-1196.4C881.8,-1196.4 915.95,-1196.4 943.11,-1196.4"/>
</g>
<!-- EarningsReport -->
<g id="node7" class="node">
<title>EarningsReport</title>
<polygon fill="#ffe08a" stroke="black" stroke-width="1.4" points="79.2,-491 0,-491 0,-447.8 79.2,-447.8 79.2,-491"/>
<text xml:space="preserve" text-anchor="middle" x="39.6" y="-470.95" font-family="Helvetica,sans-Serif" font-size="11.00">Earnings</text>
<text xml:space="preserve" text-anchor="middle" x="39.6" y="-458.95" font-family="Helvetica,sans-Serif" font-size="11.00">Report</text>
</g>
<!-- FiledBy -->
<g id="node11" class="node">
<title>FiledBy</title>
<polygon fill="#f7a8b8" stroke="black" stroke-width="1.2" points="235.45,-1029.2 188.65,-1000.4 235.45,-971.6 282.25,-1000.4 235.45,-1029.2"/>
<text xml:space="preserve" text-anchor="middle" x="235.45" y="-996.52" font-family="Helvetica,sans-Serif" font-size="10.00">FiledBy</text>
</g>
<!-- EarningsReport&#45;&#45;FiledBy -->
<g id="edge42" class="edge">
<title>EarningsReport&#45;&#45;FiledBy</title>
<path fill="none" stroke="#8892a0" d="M43.17,-491.33C51.81,-558.92 83.92,-768.58 165.2,-920.4 178.29,-944.85 200.03,-968.29 215.66,-983.41"/>
<text xml:space="preserve" text-anchor="middle" x="38.91" y="-511.08" font-family="Helvetica,sans-Serif" font-size="10.00" fill="#8a4b00">(1,1)</text>
</g>
<!-- Covers -->
<g id="node12" class="node">
<title>Covers</title>
<polygon fill="#f7a8b8" stroke="black" stroke-width="1.2" points="235.45,-902.2 188.65,-873.4 235.45,-844.6 282.25,-873.4 235.45,-902.2"/>
<text xml:space="preserve" text-anchor="middle" x="235.45" y="-869.52" font-family="Helvetica,sans-Serif" font-size="10.00">Covers</text>
</g>
<!-- EarningsReport&#45;&#45;Covers -->
<g id="edge44" class="edge">
<title>EarningsReport&#45;&#45;Covers</title>
<path fill="none" stroke="#8892a0" d="M43.39,-491.36C51.89,-550.93 82.21,-718.39 165.2,-826.4 176.53,-841.15 193.84,-852.9 208.32,-860.96"/>
<text xml:space="preserve" text-anchor="middle" x="39.54" y="-511.17" font-family="Helvetica,sans-Serif" font-size="10.00" fill="#8a4b00">(1,1)</text>
</g>
<!-- r_id -->
<g id="node32" class="node">
<title>r_id</title>
<ellipse fill="#dceefb" stroke="black" cx="235.45" cy="-794.4" rx="35.96" ry="14.4"/>
<text xml:space="preserve" text-anchor="start" x="216.7" y="-791.52" font-family="Helvetica,sans-Serif" text-decoration="underline" font-size="10.00">report_id</text>
</g>
<!-- EarningsReport&#45;&#45;r_id -->
<g id="edge20" class="edge">
<title>EarningsReport&#45;&#45;r_id</title>
<path fill="none" stroke="#8892a0" d="M44.45,-491.38C54.78,-544.36 87.74,-680.66 165.2,-761.4 176.17,-772.84 191.91,-780.77 205.6,-785.99"/>
</g>
<!-- r_rl -->
<g id="node33" class="node">
<title>r_rl</title>
<ellipse fill="#dceefb" stroke="black" cx="235.45" cy="-729.4" rx="47.06" ry="14.4"/>
<text xml:space="preserve" text-anchor="middle" x="235.45" y="-725.52" font-family="Helvetica,sans-Serif" font-size="10.00">reporter_role</text>
</g>
<!-- EarningsReport&#45;&#45;r_rl -->
<g id="edge21" class="edge">
<title>EarningsReport&#45;&#45;r_rl</title>
<path fill="none" stroke="#8892a0" d="M47.6,-491.67C62.53,-536.01 101.46,-636.21 165.2,-696.4 175.66,-706.27 189.62,-713.69 202.26,-718.97"/>
</g>
<!-- r_ag -->
<g id="node34" class="node">
<title>r_ag</title>
<ellipse fill="#dceefb" stroke="black" cx="235.45" cy="-664.4" rx="62.68" ry="14.4"/>
<text xml:space="preserve" text-anchor="middle" x="235.45" y="-660.52" font-family="Helvetica,sans-Serif" font-size="10.00">agreed_guarantee</text>
</g>
<!-- EarningsReport&#45;&#45;r_ag -->
<g id="edge22" class="edge">
<title>EarningsReport&#45;&#45;r_ag</title>
<path fill="none" stroke="#8892a0" d="M52.9,-491.45C72.73,-525.33 114.71,-590.57 165.2,-631.4 175.66,-639.86 188.64,-646.78 200.53,-652.06"/>
</g>
<!-- r_ds -->
<g id="node35" class="node">
<title>r_ds</title>
<ellipse fill="#dceefb" stroke="black" cx="235.45" cy="-599.4" rx="51.59" ry="14.4"/>
<text xml:space="preserve" text-anchor="middle" x="235.45" y="-595.52" font-family="Helvetica,sans-Serif" font-size="10.00">door_split_pct</text>
</g>
<!-- EarningsReport&#45;&#45;r_ds -->
<g id="edge23" class="edge">
<title>EarningsReport&#45;&#45;r_ds</title>
<path fill="none" stroke="#8892a0" d="M65.66,-491.56C90.01,-512.43 128.58,-543.79 165.2,-566.4 177.89,-574.24 192.73,-581.53 205.41,-587.26"/>
</g>
<!-- r_dr -->
<g id="node36" class="node">
<title>r_dr</title>
<ellipse fill="#dceefb" stroke="black" cx="235.45" cy="-534.4" rx="50.08" ry="14.4"/>
<text xml:space="preserve" text-anchor="middle" x="235.45" y="-530.52" font-family="Helvetica,sans-Serif" font-size="10.00">door_revenue</text>
</g>
<!-- EarningsReport&#45;&#45;r_dr -->
<g id="edge24" class="edge">
<title>EarningsReport&#45;&#45;r_dr</title>
<path fill="none" stroke="#8892a0" d="M79.83,-482.55C115.67,-494.57 168.07,-512.14 201.71,-523.42"/>
</g>
<!-- r_ms -->
<g id="node37" class="node">
<title>r_ms</title>
<ellipse fill="#dceefb" stroke="black" cx="235.45" cy="-469.4" rx="48.06" ry="14.4"/>
<text xml:space="preserve" text-anchor="middle" x="235.45" y="-465.52" font-family="Helvetica,sans-Serif" font-size="10.00">merch_sales</text>
</g>
<!-- EarningsReport&#45;&#45;r_ms -->
<g id="edge25" class="edge">
<title>EarningsReport&#45;&#45;r_ms</title>
<path fill="none" stroke="#8892a0" d="M79.83,-469.4C110.8,-469.4 154.14,-469.4 187.06,-469.4"/>
</g>
<!-- r_vf -->
<g id="node38" class="node">
<title>r_vf</title>
<ellipse fill="#dceefb" stroke="black" cx="235.45" cy="-404.4" rx="41.01" ry="14.4"/>
<text xml:space="preserve" text-anchor="middle" x="235.45" y="-400.52" font-family="Helvetica,sans-Serif" font-size="10.00">venue_fee</text>
</g>
<!-- EarningsReport&#45;&#45;r_vf -->
<g id="edge26" class="edge">
<title>EarningsReport&#45;&#45;r_vf</title>
<path fill="none" stroke="#8892a0" d="M79.83,-456.25C116.78,-443.86 171.32,-425.57 204.78,-414.35"/>
</g>
<!-- r_tf -->
<g id="node39" class="node">
<title>r_tf</title>
<ellipse fill="#dceefb" stroke="black" cx="235.45" cy="-339.4" rx="56.63" ry="14.4"/>
<text xml:space="preserve" text-anchor="middle" x="235.45" y="-335.52" font-family="Helvetica,sans-Serif" font-size="10.00">technician_fees</text>
</g>
<!-- EarningsReport&#45;&#45;r_tf -->
<g id="edge27" class="edge">
<title>EarningsReport&#45;&#45;r_tf</title>
<path fill="none" stroke="#8892a0" d="M65.66,-447.24C90.01,-426.37 128.58,-395.01 165.2,-372.4 177.67,-364.7 192.2,-357.53 204.73,-351.85"/>
</g>
<!-- r_ae -->
<g id="node40" class="node">
<title>r_ae</title>
<ellipse fill="#dceefb" stroke="black" cx="235.45" cy="-274.4" rx="70.25" ry="14.4"/>
<text xml:space="preserve" text-anchor="middle" x="235.45" y="-270.52" font-family="Helvetica,sans-Serif" font-size="10.00">additional_expenses</text>
</g>
<!-- EarningsReport&#45;&#45;r_ae -->
<g id="edge28" class="edge">
<title>EarningsReport&#45;&#45;r_ae</title>
<path fill="none" stroke="#8892a0" d="M52.9,-447.35C72.73,-413.47 114.71,-348.23 165.2,-307.4 175.35,-299.19 187.88,-292.43 199.47,-287.22"/>
</g>
<!-- r_at -->
<g id="node41" class="node">
<title>r_at</title>
<ellipse fill="#dceefb" stroke="black" cx="235.45" cy="-209.4" rx="43.02" ry="14.4"/>
<text xml:space="preserve" text-anchor="middle" x="235.45" y="-205.52" font-family="Helvetica,sans-Serif" font-size="10.00">attendance</text>
</g>
<!-- EarningsReport&#45;&#45;r_at -->
<g id="edge29" class="edge">
<title>EarningsReport&#45;&#45;r_at</title>
<path fill="none" stroke="#8892a0" d="M47.6,-447.13C62.53,-402.79 101.46,-302.59 165.2,-242.4 175.95,-232.25 190.39,-224.7 203.31,-219.4"/>
</g>
<!-- r_np -->
<g id="node42" class="node">
<title>r_np</title>
<ellipse fill="#dceefb" stroke="black" cx="235.45" cy="-144.4" rx="43.02" ry="14.4"/>
<text xml:space="preserve" text-anchor="middle" x="235.45" y="-140.52" font-family="Helvetica,sans-Serif" font-size="10.00">net_payout</text>
</g>
<!-- EarningsReport&#45;&#45;r_np -->
<g id="edge30" class="edge">
<title>EarningsReport&#45;&#45;r_np</title>
<path fill="none" stroke="#8892a0" d="M44.45,-447.42C54.78,-394.44 87.74,-258.14 165.2,-177.4 175.34,-166.83 189.55,-159.25 202.46,-154.04"/>
</g>
<!-- r_cu -->
<g id="node43" class="node">
<title>r_cu</title>
<ellipse fill="#dceefb" stroke="black" cx="235.45" cy="-79.4" rx="35.96" ry="14.4"/>
<text xml:space="preserve" text-anchor="middle" x="235.45" y="-75.52" font-family="Helvetica,sans-Serif" font-size="10.00">currency</text>
</g>
<!-- EarningsReport&#45;&#45;r_cu -->
<g id="edge31" class="edge">
<title>EarningsReport&#45;&#45;r_cu</title>
<path fill="none" stroke="#8892a0" d="M42.49,-447.18C48.76,-386.2 74.05,-214.06 165.2,-112.4 175.78,-100.6 191.49,-92.64 205.27,-87.5"/>
</g>
<!-- r_sa -->
<g id="node44" class="node">
<title>r_sa</title>
<ellipse fill="#dceefb" stroke="black" cx="235.45" cy="-14.4" rx="48.57" ry="14.4"/>
<text xml:space="preserve" text-anchor="middle" x="235.45" y="-10.52" font-family="Helvetica,sans-Serif" font-size="10.00">submitted_at</text>
</g>
<!-- EarningsReport&#45;&#45;r_sa -->
<g id="edge32" class="edge">
<title>EarningsReport&#45;&#45;r_sa</title>
<path fill="none" stroke="#8892a0" d="M41.06,-447.2C43.61,-379.14 60.06,-170.57 165.2,-47.4 174.11,-36.97 187.05,-29.59 199.35,-24.49"/>
</g>
<!-- isa&#45;&#45;Act -->
<g id="edge34" class="edge">
<title>isa&#45;&#45;Act</title>
<path fill="none" stroke="#8892a0" d="M638.29,-1201.54C652.4,-1207.3 674.52,-1217.67 690.33,-1231.4 741.5,-1275.84 783.63,-1345.05 803.18,-1380.23"/>
</g>
<!-- isa&#45;&#45;Promoter -->
<g id="edge35" class="edge">
<title>isa&#45;&#45;Promoter</title>
<path fill="none" stroke="#8892a0" d="M644.62,-1196.4C675.64,-1196.4 735.9,-1196.4 775.78,-1196.4"/>
</g>
<!-- MemberOf&#45;&#45;Act -->
<g id="edge37" class="edge">
<title>MemberOf&#45;&#45;Act</title>
<path fill="none" stroke="#8892a0" d="M647.97,-1587.92C661.07,-1579.26 677.35,-1567.6 690.33,-1555.4 734.9,-1513.54 777.9,-1455.67 799.84,-1424.47"/>
<text xml:space="preserve" text-anchor="middle" x="780.57" y="-1434.89" font-family="Helvetica,sans-Serif" font-size="10.00" fill="#8a4b00">(1,N)</text>
</g>
<!-- mo_role -->
<g id="node45" class="node">
<title>mo_role</title>
<ellipse fill="#dceefb" stroke="black" cx="815.93" cy="-1634.4" rx="32.4" ry="14.4"/>
<text xml:space="preserve" text-anchor="middle" x="815.93" y="-1630.53" font-family="Helvetica,sans-Serif" font-size="10.00">role</text>
</g>
<!-- MemberOf&#45;&#45;mo_role -->
<g id="edge38" class="edge">
<title>MemberOf&#45;&#45;mo_role</title>
<path fill="none" stroke="#8892a0" d="M661.31,-1608.57C697.39,-1614.64 751.77,-1623.78 785.22,-1629.4"/>
</g>
<!-- mo_act -->
<g id="node46" class="node">
<title>mo_act</title>
<ellipse fill="#dceefb" stroke="black" cx="815.93" cy="-1569.4" rx="36.97" ry="14.4"/>
<text xml:space="preserve" text-anchor="middle" x="815.93" y="-1565.53" font-family="Helvetica,sans-Serif" font-size="10.00">is_active</text>
</g>
<!-- MemberOf&#45;&#45;mo_act -->
<g id="edge39" class="edge">
<title>MemberOf&#45;&#45;mo_act</title>
<path fill="none" stroke="#8892a0" d="M660.86,-1596.12C695.69,-1590.08 747.9,-1581.02 781.69,-1575.16"/>
</g>
<!-- HostedAt&#45;&#45;Venue -->
<g id="edge41" class="edge">
<title>HostedAt&#45;&#45;Venue</title>
<path fill="none" stroke="#8892a0" d="M671.17,-920.4C703.3,-920.4 745.54,-920.4 775.91,-920.4"/>
<text xml:space="preserve" text-anchor="middle" x="753.09" y="-909.11" font-family="Helvetica,sans-Serif" font-size="10.00" fill="#8a4b00">(0,N)</text>
</g>
<!-- FiledBy&#45;&#45;Party -->
<g id="edge43" class="edge">
<title>FiledBy&#45;&#45;Party</title>
<path fill="none" stroke="#8892a0" d="M266.74,-1010.4C300.28,-1021.47 354.46,-1039.36 391.18,-1051.49"/>
<text xml:space="preserve" text-anchor="middle" x="371.83" y="-1033.41" font-family="Helvetica,sans-Serif" font-size="10.00" fill="#8a4b00">(0,N)</text>
</g>
<!-- Covers&#45;&#45;Gig -->
<g id="edge45" class="edge">
<title>Covers&#45;&#45;Gig</title>
<path fill="none" stroke="#8892a0" d="M273.36,-867.31C307.09,-861.74 356.79,-853.53 391.19,-847.86"/>
<text xml:space="preserve" text-anchor="middle" x="367.46" y="-840.38" font-family="Helvetica,sans-Serif" font-size="10.00" fill="#8a4b00">(0,N)</text>
</g>
</g>
</svg>
