<?xml version="1.0" encoding="UTF-8" standalone="no"?>
<!DOCTYPE svg PUBLIC "-//W3C//DTD SVG 1.1//EN"
 "http://www.w3.org/Graphics/SVG/1.1/DTD/svg11.dtd">
<!-- Generated by graphviz version 15.1.0 (20260618.0150)
 -->
<!-- Title: GigShareERD Pages: 1 -->
<svg width="1190pt" height="1258pt"
 viewBox="0.00 0.00 1190.00 1258.00" xmlns="http://www.w3.org/2000/svg" xmlns:xlink="http://www.w3.org/1999/xlink">
<g id="graph0" class="graph" transform="scale(1 1) rotate(0) translate(36 1221.8)">
<title>GigShareERD</title>
<polygon fill="white" stroke="none" points="-36,36 -36,-1221.8 1154.16,-1221.8 1154.16,36 -36,36"/>
<!-- Musician -->
<g id="node1" class="node">
<title>Musician</title>
<polygon fill="#ffe08a" stroke="black" stroke-width="1.4" points="509.89,-479 430.69,-479 430.69,-435.8 509.89,-435.8 509.89,-479"/>
<text xml:space="preserve" text-anchor="middle" x="470.29" y="-452.95" font-family="Helvetica,sans-Serif" font-size="11.00">Musician</text>
</g>
<!-- MemberOf -->
<g id="node9" class="node">
<title>MemberOf</title>
<polygon fill="#f7a8b8" stroke="black" stroke-width="1.2" points="682.86,-309.2 636.06,-280.4 682.86,-251.6 729.66,-280.4 682.86,-309.2"/>
<text xml:space="preserve" text-anchor="middle" x="682.86" y="-276.52" font-family="Helvetica,sans-Serif" font-size="10.00">MemberOf</text>
</g>
<!-- Musician&#45;&#45;MemberOf -->
<g id="edge36" class="edge">
<title>Musician&#45;&#45;MemberOf</title>
<path fill="none" stroke="#8892a0" d="M494.18,-435.41C522.17,-408.88 571.34,-363.35 616.14,-327.4 630.15,-316.16 646.58,-304.41 659.51,-295.47"/>
<text xml:space="preserve" text-anchor="middle" x="563.02" y="-380.55" font-family="Helvetica,sans-Serif" font-size="9.00" fill="#8a4b00">(0,N)</text>
</g>
<!-- m_id -->
<g id="node13" class="node">
<title>m_id</title>
<ellipse fill="#dceefb" stroke="black" cx="682.86" cy="-489.4" rx="45.54" ry="14.4"/>
<text xml:space="preserve" text-anchor="start" x="656.99" y="-486.52" font-family="Helvetica,sans-Serif" text-decoration="underline" font-size="10.00">musician_id</text>
</g>
<!-- Musician&#45;&#45;m_id -->
<g id="edge1" class="edge">
<title>Musician&#45;&#45;m_id</title>
<path fill="none" stroke="#8892a0" d="M510.41,-463.34C547.63,-469 603.42,-477.48 641.16,-483.22"/>
</g>
<!-- m_nm -->
<g id="node14" class="node">
<title>m_nm</title>
<ellipse fill="#dceefb" stroke="black" cx="682.86" cy="-424.4" rx="51.09" ry="14.4"/>
<text xml:space="preserve" text-anchor="middle" x="682.86" y="-420.52" font-family="Helvetica,sans-Serif" font-size="10.00">display_name</text>
</g>
<!-- Musician&#45;&#45;m_nm -->
<g id="edge2" class="edge">
<title>Musician&#45;&#45;m_nm</title>
<path fill="none" stroke="#8892a0" d="M510.41,-451.27C546.44,-445.62 599.88,-437.25 637.49,-431.35"/>
</g>
<!-- m_em -->
<g id="node15" class="node">
<title>m_em</title>
<ellipse fill="#dceefb" stroke="black" cx="682.86" cy="-359.4" rx="32.4" ry="14.4"/>
<text xml:space="preserve" text-anchor="middle" x="682.86" y="-355.52" font-family="Helvetica,sans-Serif" font-size="10.00">email</text>
</g>
<!-- Musician&#45;&#45;m_em -->
<g id="edge3" class="edge">
<title>Musician&#45;&#45;m_em</title>
<path fill="none" stroke="#8892a0" d="M510.41,-439.2C554.29,-418.77 623.98,-386.34 659.48,-369.82"/>
</g>
<!-- m_in -->
<g id="node16" class="node">
<title>m_in</title>
<ellipse fill="#dceefb" stroke="black" cx="682.86" cy="-619.4" rx="66.72" ry="14.4"/>
<text xml:space="preserve" text-anchor="middle" x="682.86" y="-615.52" font-family="Helvetica,sans-Serif" font-size="10.00">primary_instrument</text>
</g>
<!-- Musician&#45;&#45;m_in -->
<g id="edge4" class="edge">
<title>Musician&#45;&#45;m_in</title>
<path fill="none" stroke="#8892a0" d="M492.31,-479.54C519.18,-507 568.03,-554.15 616.14,-586.4 627.28,-593.86 640.34,-600.76 651.86,-606.29"/>
</g>
<!-- m_ct -->
<g id="node17" class="node">
<title>m_ct</title>
<ellipse fill="#dceefb" stroke="black" cx="682.86" cy="-554.4" rx="41.01" ry="14.4"/>
<text xml:space="preserve" text-anchor="middle" x="682.86" y="-550.52" font-family="Helvetica,sans-Serif" font-size="10.00">home_city</text>
</g>
<!-- Musician&#45;&#45;m_ct -->
<g id="edge5" class="edge">
<title>Musician&#45;&#45;m_ct</title>
<path fill="none" stroke="#8892a0" d="M510.44,-478.27C523.8,-485.21 538.91,-492.83 552.89,-499.4 587.59,-515.7 628.41,-532.76 654.69,-543.48"/>
</g>
<!-- Venue -->
<g id="node2" class="node">
<title>Venue</title>
<polygon fill="#ffe08a" stroke="black" stroke-width="1.4" points="935.03,-785 855.83,-785 855.83,-741.8 935.03,-741.8 935.03,-785"/>
<text xml:space="preserve" text-anchor="middle" x="895.43" y="-758.95" font-family="Helvetica,sans-Serif" font-size="11.00">Venue</text>
</g>
<!-- v_id -->
<g id="node24" class="node">
<title>v_id</title>
<ellipse fill="#dceefb" stroke="black" cx="1070.1" cy="-763.4" rx="36.97" ry="14.4"/>
<text xml:space="preserve" text-anchor="start" x="1050.6" y="-760.52" font-family="Helvetica,sans-Serif" text-decoration="underline" font-size="10.00">venue_id</text>
</g>
<!-- Venue&#45;&#45;v_id -->
<g id="edge12" class="edge">
<title>Venue&#45;&#45;v_id</title>
<path fill="none" stroke="#8892a0" d="M935.61,-763.4C964.76,-763.4 1004.27,-763.4 1032.72,-763.4"/>
</g>
<!-- v_nm -->
<g id="node25" class="node">
<title>v_nm</title>
<ellipse fill="#dceefb" stroke="black" cx="1070.1" cy="-698.4" rx="48.06" ry="14.4"/>
<text xml:space="preserve" text-anchor="middle" x="1070.1" y="-694.52" font-family="Helvetica,sans-Serif" font-size="10.00">venue_name</text>
</g>
<!-- Venue&#45;&#45;v_nm -->
<g id="edge13" class="edge">
<title>Venue&#45;&#45;v_nm</title>
<path fill="none" stroke="#8892a0" d="M935.61,-748.65C966.95,-736.85 1010.26,-720.55 1038.94,-709.75"/>
</g>
<!-- v_ct -->
<g id="node26" class="node">
<title>v_ct</title>
<ellipse fill="#dceefb" stroke="black" cx="1070.1" cy="-633.4" rx="32.4" ry="14.4"/>
<text xml:space="preserve" text-anchor="middle" x="1070.1" y="-629.52" font-family="Helvetica,sans-Serif" font-size="10.00">city</text>
</g>
<!-- Venue&#45;&#45;v_ct -->
<g id="edge14" class="edge">
<title>Venue&#45;&#45;v_ct</title>
<path fill="none" stroke="#8892a0" d="M924.09,-741.45C949.35,-721.55 987.86,-691.55 1022.03,-666.4 1031.68,-659.3 1042.62,-651.61 1051.53,-645.43"/>
</g>
<!-- v_cp -->
<g id="node27" class="node">
<title>v_cp</title>
<ellipse fill="#dceefb" stroke="black" cx="1070.1" cy="-893.4" rx="35.46" ry="14.4"/>
<text xml:space="preserve" text-anchor="middle" x="1070.1" y="-889.52" font-family="Helvetica,sans-Serif" font-size="10.00">capacity</text>
</g>
<!-- Venue&#45;&#45;v_cp -->
<g id="edge15" class="edge">
<title>Venue&#45;&#45;v_cp</title>
<path fill="none" stroke="#8892a0" d="M924.09,-785.35C949.35,-805.25 987.86,-835.25 1022.03,-860.4 1031.51,-867.38 1042.25,-874.94 1051.08,-881.06"/>
</g>
<!-- v_tp -->
<g id="node28" class="node">
<title>v_tp</title>
<ellipse fill="#dceefb" stroke="black" cx="1070.1" cy="-828.4" rx="44.53" ry="14.4"/>
<text xml:space="preserve" text-anchor="middle" x="1070.1" y="-824.52" font-family="Helvetica,sans-Serif" font-size="10.00">venue_type</text>
</g>
<!-- Venue&#45;&#45;v_tp -->
<g id="edge16" class="edge">
<title>Venue&#45;&#45;v_tp</title>
<path fill="none" stroke="#8892a0" d="M935.61,-778.15C967.35,-790.1 1011.36,-806.66 1040.02,-817.46"/>
</g>
<!-- Gig -->
<g id="node3" class="node">
<title>Gig</title>
<polygon fill="#ffe08a" stroke="black" stroke-width="1.4" points="509.89,-864 430.69,-864 430.69,-820.8 509.89,-820.8 509.89,-864"/>
<text xml:space="preserve" text-anchor="middle" x="470.29" y="-837.95" font-family="Helvetica,sans-Serif" font-size="11.00">Gig</text>
</g>
<!-- HostedAt -->
<g id="node10" class="node">
<title>HostedAt</title>
<polygon fill="#f7a8b8" stroke="black" stroke-width="1.2" points="682.86,-792.2 636.06,-763.4 682.86,-734.6 729.66,-763.4 682.86,-792.2"/>
<text xml:space="preserve" text-anchor="middle" x="682.86" y="-759.52" font-family="Helvetica,sans-Serif" font-size="10.00">HostedAt</text>
</g>
<!-- Gig&#45;&#45;HostedAt -->
<g id="edge40" class="edge">
<title>Gig&#45;&#45;HostedAt</title>
<path fill="none" stroke="#8892a0" d="M510.41,-827.73C551.68,-812.24 615.76,-788.2 652.78,-774.31"/>
<text xml:space="preserve" text-anchor="middle" x="563.02" y="-811.18" font-family="Helvetica,sans-Serif" font-size="9.00" fill="#8a4b00">(1,1)</text>
</g>
<!-- g_id -->
<g id="node29" class="node">
<title>g_id</title>
<ellipse fill="#dceefb" stroke="black" cx="682.86" cy="-684.4" rx="32.4" ry="14.4"/>
<text xml:space="preserve" text-anchor="start" x="670.11" y="-681.52" font-family="Helvetica,sans-Serif" text-decoration="underline" font-size="10.00">gig_id</text>
</g>
<!-- Gig&#45;&#45;g_id -->
<g id="edge17" class="edge">
<title>Gig&#45;&#45;g_id</title>
<path fill="none" stroke="#8892a0" d="M492.88,-820.35C519.95,-793.5 568.61,-747.85 616.14,-716.4 629.37,-707.65 645.35,-699.81 658.24,-694.09"/>
</g>
<!-- g_dt -->
<g id="node30" class="node">
<title>g_dt</title>
<ellipse fill="#dceefb" stroke="black" cx="682.86" cy="-907.4" rx="35.46" ry="14.4"/>
<text xml:space="preserve" text-anchor="middle" x="682.86" y="-903.52" font-family="Helvetica,sans-Serif" font-size="10.00">gig_date</text>
</g>
<!-- Gig&#45;&#45;g_dt -->
<g id="edge18" class="edge">
<title>Gig&#45;&#45;g_dt</title>
<path fill="none" stroke="#8892a0" d="M510.59,-856.34C523.97,-860.96 539.04,-866.04 552.89,-870.4 586.89,-881.1 626.32,-892.23 652.54,-899.45"/>
</g>
<!-- g_dp -->
<g id="node31" class="node">
<title>g_dp</title>
<ellipse fill="#dceefb" stroke="black" cx="682.86" cy="-842.4" rx="41.01" ry="14.4"/>
<text xml:space="preserve" text-anchor="middle" x="682.86" y="-838.52" font-family="Helvetica,sans-Serif" font-size="10.00">door_price</text>
</g>
<!-- Gig&#45;&#45;g_dp -->
<g id="edge19" class="edge">
<title>Gig&#45;&#45;g_dp</title>
<path fill="none" stroke="#8892a0" d="M510.41,-842.4C547.75,-842.4 603.78,-842.4 641.53,-842.4"/>
</g>
<!-- Party -->
<g id="node4" class="node">
<title>Party</title>
<polygon fill="#ffe08a" stroke="black" stroke-width="1.4" points="509.89,-1059 430.69,-1059 430.69,-1015.8 509.89,-1015.8 509.89,-1059"/>
<text xml:space="preserve" text-anchor="middle" x="470.29" y="-1032.95" font-family="Helvetica,sans-Serif" font-size="11.00">Party</text>
</g>
<!-- isa -->
<g id="node8" class="node">
<title>isa</title>
<polygon fill="#ededed" stroke="black" stroke-width="1.1" points="682.86,-1121.4 652.61,-1095.9 713.11,-1095.9 682.86,-1121.4"/>
<text xml:space="preserve" text-anchor="middle" x="682.86" y="-1101.3" font-family="Helvetica,sans-Serif" font-size="8.00">isa</text>
</g>
<!-- Party&#45;&#45;isa -->
<g id="edge33" class="edge">
<title>Party&#45;&#45;isa</title>
<path fill="none" stroke="#8892a0" d="M510.21,-1051.08C523.69,-1055.73 538.93,-1060.89 552.89,-1065.4 586.51,-1076.25 625.34,-1087.87 651.54,-1095.57"/>
</g>
<!-- p_id -->
<g id="node18" class="node">
<title>p_id</title>
<ellipse fill="#dceefb" stroke="black" cx="682.86" cy="-1037.4" rx="33.95" ry="14.4"/>
<text xml:space="preserve" text-anchor="start" x="665.61" y="-1034.53" font-family="Helvetica,sans-Serif" text-decoration="underline" font-size="10.00">party_id</text>
</g>
<!-- Party&#45;&#45;p_id -->
<g id="edge6" class="edge">
<title>Party&#45;&#45;p_id</title>
<path fill="none" stroke="#8892a0" d="M510.41,-1037.4C550.13,-1037.4 610.99,-1037.4 648.51,-1037.4"/>
</g>
<!-- p_nm -->
<g id="node19" class="node">
<title>p_nm</title>
<ellipse fill="#dceefb" stroke="black" cx="682.86" cy="-972.4" rx="45.04" ry="14.4"/>
<text xml:space="preserve" text-anchor="middle" x="682.86" y="-968.52" font-family="Helvetica,sans-Serif" font-size="10.00">party_name</text>
</g>
<!-- Party&#45;&#45;p_nm -->
<g id="edge7" class="edge">
<title>Party&#45;&#45;p_nm</title>
<path fill="none" stroke="#8892a0" d="M510.41,-1025.33C550.49,-1012.95 612.09,-993.94 649.51,-982.39"/>
</g>
<!-- p_ct -->
<g id="node20" class="node">
<title>p_ct</title>
<ellipse fill="#dceefb" stroke="black" cx="682.86" cy="-1171.4" rx="46.55" ry="14.4"/>
<text xml:space="preserve" text-anchor="middle" x="682.86" y="-1167.53" font-family="Helvetica,sans-Serif" font-size="10.00">contact_info</text>
</g>
<!-- Party&#45;&#45;p_ct -->
<g id="edge8" class="edge">
<title>Party&#45;&#45;p_ct</title>
<path fill="none" stroke="#8892a0" d="M499.7,-1059.68C528.2,-1081.47 573.83,-1114.88 616.14,-1139.4 628.66,-1146.65 643.06,-1153.79 655.19,-1159.48"/>
</g>
<!-- Act -->
<g id="node5" class="node">
<title>Act</title>
<polygon fill="#ffe08a" stroke="black" stroke-width="1.4" points="935.03,-1012 855.83,-1012 855.83,-968.8 935.03,-968.8 935.03,-1012"/>
<text xml:space="preserve" text-anchor="middle" x="895.43" y="-985.95" font-family="Helvetica,sans-Serif" font-size="11.00">Act</text>
</g>
<!-- a_gn -->
<g id="node21" class="node">
<title>a_gn</title>
<ellipse fill="#dceefb" stroke="black" cx="1070.1" cy="-1031.4" rx="32.4" ry="14.4"/>
<text xml:space="preserve" text-anchor="middle" x="1070.1" y="-1027.53" font-family="Helvetica,sans-Serif" font-size="10.00">genre</text>
</g>
<!-- Act&#45;&#45;a_gn -->
<g id="edge9" class="edge">
<title>Act&#45;&#45;a_gn</title>
<path fill="none" stroke="#8892a0" d="M935.61,-999.7C967.65,-1007.31 1012.19,-1017.89 1040.83,-1024.69"/>
</g>
<!-- a_tp -->
<g id="node22" class="node">
<title>a_tp</title>
<ellipse fill="#dceefb" stroke="black" cx="1070.1" cy="-966.4" rx="35.96" ry="14.4"/>
<text xml:space="preserve" text-anchor="middle" x="1070.1" y="-962.52" font-family="Helvetica,sans-Serif" font-size="10.00">act_type</text>
</g>
<!-- Act&#45;&#45;a_tp -->
<g id="edge10" class="edge">
<title>Act&#45;&#45;a_tp</title>
<path fill="none" stroke="#8892a0" d="M935.61,-984.95C965.76,-980.76 1006.97,-975.03 1035.6,-971.06"/>
</g>
<!-- Promoter -->
<g id="node6" class="node">
<title>Promoter</title>
<polygon fill="#ffe08a" stroke="black" stroke-width="1.4" points="935.03,-1126 855.83,-1126 855.83,-1082.8 935.03,-1082.8 935.03,-1126"/>
<text xml:space="preserve" text-anchor="middle" x="895.43" y="-1099.95" font-family="Helvetica,sans-Serif" font-size="11.00">Promoter</text>
</g>
<!-- pr_co -->
<g id="node23" class="node">
<title>pr_co</title>
<ellipse fill="#dceefb" stroke="black" cx="1070.1" cy="-1104.4" rx="46.05" ry="14.4"/>
<text xml:space="preserve" text-anchor="middle" x="1070.1" y="-1100.53" font-family="Helvetica,sans-Serif" font-size="10.00">is_company</text>
</g>
<!-- Promoter&#45;&#45;pr_co -->
<g id="edge11" class="edge">
<title>Promoter&#45;&#45;pr_co</title>
<path fill="none" stroke="#8892a0" d="M935.61,-1104.4C961.78,-1104.4 996.28,-1104.4 1023.66,-1104.4"/>
</g>
<!-- EarningsReport -->
<g id="node7" class="node">
<title>EarningsReport</title>
<polygon fill="#ffe08a" stroke="black" stroke-width="1.4" points="79.2,-491 0,-491 0,-447.8 79.2,-447.8 79.2,-491"/>
<text xml:space="preserve" text-anchor="middle" x="39.6" y="-470.95" font-family="Helvetica,sans-Serif" font-size="11.00">Earnings</text>
<text xml:space="preserve" text-anchor="middle" x="39.6" y="-458.95" font-family="Helvetica,sans-Serif" font-size="11.00">Report</text>
</g>
<!-- FiledBy -->
<g id="node11" class="node">
<title>FiledBy</title>
<polygon fill="#f7a8b8" stroke="black" stroke-width="1.2" points="254.2,-1046.2 207.4,-1017.4 254.2,-988.6 301,-1017.4 254.2,-1046.2"/>
<text xml:space="preserve" text-anchor="middle" x="254.2" y="-1013.52" font-family="Helvetica,sans-Serif" font-size="10.00">FiledBy</text>
</g>
<!-- EarningsReport&#45;&#45;FiledBy -->
<g id="edge42" class="edge">
<title>EarningsReport&#45;&#45;FiledBy</title>
<path fill="none" stroke="#8892a0" d="M44.08,-491.45C55.51,-559.37 96.3,-769.88 183.95,-920.4 200.4,-948.65 222.92,-978.98 237.76,-998.06"/>
<text xml:space="preserve" text-anchor="middle" x="131.57" y="-829.1" font-family="Helvetica,sans-Serif" font-size="9.00" fill="#8a4b00">(1,1)</text>
</g>
<!-- Covers -->
<g id="node12" class="node">
<title>Covers</title>
<polygon fill="#f7a8b8" stroke="black" stroke-width="1.2" points="254.2,-902.2 207.4,-873.4 254.2,-844.6 301,-873.4 254.2,-902.2"/>
<text xml:space="preserve" text-anchor="middle" x="254.2" y="-869.52" font-family="Helvetica,sans-Serif" font-size="10.00">Covers</text>
</g>
<!-- EarningsReport&#45;&#45;Covers -->
<g id="edge44" class="edge">
<title>EarningsReport&#45;&#45;Covers</title>
<path fill="none" stroke="#8892a0" d="M43.63,-491.32C53.12,-552.27 87.63,-725.83 183.95,-826.4 196.81,-839.83 214.13,-851.58 228.22,-859.97"/>
<text xml:space="preserve" text-anchor="middle" x="131.57" y="-770.21" font-family="Helvetica,sans-Serif" font-size="9.00" fill="#8a4b00">(1,1)</text>
</g>
<!-- r_id -->
<g id="node32" class="node">
<title>r_id</title>
<ellipse fill="#dceefb" stroke="black" cx="254.2" cy="-794.4" rx="35.96" ry="14.4"/>
<text xml:space="preserve" text-anchor="start" x="235.45" y="-791.52" font-family="Helvetica,sans-Serif" text-decoration="underline" font-size="10.00">report_id</text>
</g>
<!-- EarningsReport&#45;&#45;r_id -->
<g id="edge20" class="edge">
<title>EarningsReport&#45;&#45;r_id</title>
<path fill="none" stroke="#8892a0" d="M45.17,-491.3C57.57,-545.3 96.93,-685.9 183.95,-761.4 196.02,-771.87 211.99,-779.78 225.55,-785.22"/>
</g>
<!-- r_rl -->
<g id="node33" class="node">
<title>r_rl</title>
<ellipse fill="#dceefb" stroke="black" cx="254.2" cy="-729.4" rx="47.06" ry="14.4"/>
<text xml:space="preserve" text-anchor="middle" x="254.2" y="-725.52" font-family="Helvetica,sans-Serif" font-size="10.00">reporter_role</text>
</g>
<!-- EarningsReport&#45;&#45;r_rl -->
<g id="edge21" class="edge">
<title>EarningsReport&#45;&#45;r_rl</title>
<path fill="none" stroke="#8892a0" d="M49.09,-491.68C67.23,-536.48 113.88,-638.14 183.95,-696.4 195.21,-705.77 209.58,-713.18 222.31,-718.58"/>
</g>
<!-- r_ag -->
<g id="node34" class="node">
<title>r_ag</title>
<ellipse fill="#dceefb" stroke="black" cx="254.2" cy="-664.4" rx="62.68" ry="14.4"/>
<text xml:space="preserve" text-anchor="middle" x="254.2" y="-660.52" font-family="Helvetica,sans-Serif" font-size="10.00">agreed_guarantee</text>
</g>
<!-- EarningsReport&#45;&#45;r_ag -->
<g id="edge22" class="edge">
<title>EarningsReport&#45;&#45;r_ag</title>
<path fill="none" stroke="#8892a0" d="M55.7,-491.63C79.6,-525.48 129.09,-590.32 183.95,-631.4 194.93,-639.62 208.28,-646.57 220.32,-651.94"/>
</g>
<!-- r_ds -->
<g id="node35" class="node">
<title>r_ds</title>
<ellipse fill="#dceefb" stroke="black" cx="254.2" cy="-599.4" rx="51.59" ry="14.4"/>
<text xml:space="preserve" text-anchor="middle" x="254.2" y="-595.52" font-family="Helvetica,sans-Serif" font-size="10.00">door_split_pct</text>
</g>
<!-- EarningsReport&#45;&#45;r_ds -->
<g id="edge23" class="edge">
<title>EarningsReport&#45;&#45;r_ds</title>
<path fill="none" stroke="#8892a0" d="M69.74,-491.59C97.98,-512.48 142.51,-543.86 183.95,-566.4 197.4,-573.72 212.74,-581.12 225.56,-587.05"/>
</g>
<!-- r_dr -->
<g id="node36" class="node">
<title>r_dr</title>
<ellipse fill="#dceefb" stroke="black" cx="254.2" cy="-534.4" rx="50.08" ry="14.4"/>
<text xml:space="preserve" text-anchor="middle" x="254.2" y="-530.52" font-family="Helvetica,sans-Serif" font-size="10.00">door_revenue</text>
</g>
<!-- EarningsReport&#45;&#45;r_dr -->
<g id="edge24" class="edge">
<title>EarningsReport&#45;&#45;r_dr</title>
<path fill="none" stroke="#8892a0" d="M79.88,-483.37C93.26,-488 108.33,-493.07 122.2,-497.4 153.78,-507.27 190,-517.41 216.33,-524.57"/>
</g>
<!-- r_ms -->
<g id="node37" class="node">
<title>r_ms</title>
<ellipse fill="#dceefb" stroke="black" cx="254.2" cy="-469.4" rx="48.06" ry="14.4"/>
<text xml:space="preserve" text-anchor="middle" x="254.2" y="-465.52" font-family="Helvetica,sans-Serif" font-size="10.00">merch_sales</text>
</g>
<!-- EarningsReport&#45;&#45;r_ms -->
<g id="edge25" class="edge">
<title>EarningsReport&#45;&#45;r_ms</title>
<path fill="none" stroke="#8892a0" d="M79.59,-469.4C115.2,-469.4 167.91,-469.4 205.9,-469.4"/>
</g>
<!-- r_vf -->
<g id="node38" class="node">
<title>r_vf</title>
<ellipse fill="#dceefb" stroke="black" cx="254.2" cy="-404.4" rx="41.01" ry="14.4"/>
<text xml:space="preserve" text-anchor="middle" x="254.2" y="-400.52" font-family="Helvetica,sans-Serif" font-size="10.00">venue_fee</text>
</g>
<!-- EarningsReport&#45;&#45;r_vf -->
<g id="edge26" class="edge">
<title>EarningsReport&#45;&#45;r_vf</title>
<path fill="none" stroke="#8892a0" d="M79.59,-457.48C120.71,-444.91 184.65,-425.36 222.38,-413.82"/>
</g>
<!-- r_tf -->
<g id="node39" class="node">
<title>r_tf</title>
<ellipse fill="#dceefb" stroke="black" cx="254.2" cy="-339.4" rx="56.63" ry="14.4"/>
<text xml:space="preserve" text-anchor="middle" x="254.2" y="-335.52" font-family="Helvetica,sans-Serif" font-size="10.00">technician_fees</text>
</g>
<!-- EarningsReport&#45;&#45;r_tf -->
<g id="edge27" class="edge">
<title>EarningsReport&#45;&#45;r_tf</title>
<path fill="none" stroke="#8892a0" d="M70.51,-447.22C98.93,-426.61 143.26,-395.68 183.95,-372.4 196.9,-364.99 211.77,-357.75 224.4,-351.95"/>
</g>
<!-- r_ae -->
<g id="node40" class="node">
<title>r_ae</title>
<ellipse fill="#dceefb" stroke="black" cx="254.2" cy="-274.4" rx="70.25" ry="14.4"/>
<text xml:space="preserve" text-anchor="middle" x="254.2" y="-270.52" font-family="Helvetica,sans-Serif" font-size="10.00">additional_expenses</text>
</g>
<!-- EarningsReport&#45;&#45;r_ae -->
<g id="edge28" class="edge">
<title>EarningsReport&#45;&#45;r_ae</title>
<path fill="none" stroke="#8892a0" d="M55.73,-447.2C79.66,-413.41 129.2,-348.64 183.95,-307.4 194.59,-299.39 207.48,-292.6 219.24,-287.3"/>
</g>
<!-- r_at -->
<g id="node41" class="node">
<title>r_at</title>
<ellipse fill="#dceefb" stroke="black" cx="254.2" cy="-209.4" rx="43.02" ry="14.4"/>
<text xml:space="preserve" text-anchor="middle" x="254.2" y="-205.52" font-family="Helvetica,sans-Serif" font-size="10.00">attendance</text>
</g>
<!-- EarningsReport&#45;&#45;r_at -->
<g id="edge29" class="edge">
<title>EarningsReport&#45;&#45;r_at</title>
<path fill="none" stroke="#8892a0" d="M49.35,-447.42C67.96,-403.17 115.42,-302.46 183.95,-242.4 195.17,-232.57 209.82,-225.02 222.76,-219.65"/>
</g>
<!-- r_np -->
<g id="node42" class="node">
<title>r_np</title>
<ellipse fill="#dceefb" stroke="black" cx="254.2" cy="-144.4" rx="43.02" ry="14.4"/>
<text xml:space="preserve" text-anchor="middle" x="254.2" y="-140.52" font-family="Helvetica,sans-Serif" font-size="10.00">net_payout</text>
</g>
<!-- EarningsReport&#45;&#45;r_np -->
<g id="edge30" class="edge">
<title>EarningsReport&#45;&#45;r_np</title>
<path fill="none" stroke="#8892a0" d="M45.5,-447.37C58.55,-393.69 99.07,-254.88 183.95,-177.4 194.97,-167.34 209.6,-159.77 222.57,-154.43"/>
</g>
<!-- r_cu -->
<g id="node43" class="node">
<title>r_cu</title>
<ellipse fill="#dceefb" stroke="black" cx="254.2" cy="-79.4" rx="35.96" ry="14.4"/>
<text xml:space="preserve" text-anchor="middle" x="254.2" y="-75.52" font-family="Helvetica,sans-Serif" font-size="10.00">currency</text>
</g>
<!-- EarningsReport&#45;&#45;r_cu -->
<g id="edge31" class="edge">
<title>EarningsReport&#45;&#45;r_cu</title>
<path fill="none" stroke="#8892a0" d="M42.99,-447.34C50.9,-385.29 81.82,-207.55 183.95,-112.4 195.64,-101.51 211.59,-93.57 225.23,-88.22"/>
</g>
<!-- r_sa -->
<g id="node44" class="node">
<title>r_sa</title>
<ellipse fill="#dceefb" stroke="black" cx="254.2" cy="-14.4" rx="48.57" ry="14.4"/>
<text xml:space="preserve" text-anchor="middle" x="254.2" y="-10.52" font-family="Helvetica,sans-Serif" font-size="10.00">submitted_at</text>
</g>
<!-- EarningsReport&#45;&#45;r_sa -->
<g id="edge32" class="edge">
<title>EarningsReport&#45;&#45;r_sa</title>
<path fill="none" stroke="#8892a0" d="M44.42,-447.31C53.79,-395.51 80.26,-262.77 122.2,-158.4 143.25,-106.02 142.79,-86.04 183.95,-47.4 194.24,-37.74 207.88,-30.42 220.33,-25.16"/>
</g>
<!-- isa&#45;&#45;Act -->
<g id="edge34" class="edge">
<title>isa&#45;&#45;Act</title>
<path fill="none" stroke="#8892a0" d="M700.91,-1095.38C714.19,-1088.34 733.08,-1078.29 749.58,-1069.4 785.39,-1050.1 826.04,-1027.91 855.14,-1011.96"/>
</g>
<!-- isa&#45;&#45;Promoter -->
<g id="edge35" class="edge">
<title>isa&#45;&#45;Promoter</title>
<path fill="none" stroke="#8892a0" d="M703.67,-1104.4C738.28,-1104.4 810.33,-1104.4 855.3,-1104.4"/>
</g>
<!-- MemberOf&#45;&#45;Act -->
<g id="edge37" class="edge">
<title>MemberOf&#45;&#45;Act</title>
<path fill="none" stroke="#8892a0" d="M709.97,-293.03C723.79,-301.02 739.86,-312.64 749.58,-327.4 758.81,-341.4 866.26,-855.24 889.87,-968.47"/>
<text xml:space="preserve" text-anchor="middle" x="802.71" y="-587.89" font-family="Helvetica,sans-Serif" font-size="9.00" fill="#8a4b00">(1,N)</text>
</g>
<!-- mo_role -->
<g id="node45" class="node">
<title>mo_role</title>
<ellipse fill="#dceefb" stroke="black" cx="895.43" cy="-248.4" rx="32.4" ry="14.4"/>
<text xml:space="preserve" text-anchor="middle" x="895.43" y="-244.52" font-family="Helvetica,sans-Serif" font-size="10.00">role</text>
</g>
<!-- MemberOf&#45;&#45;mo_role -->
<g id="edge38" class="edge">
<title>MemberOf&#45;&#45;mo_role</title>
<path fill="none" stroke="#8892a0" d="M721.51,-274.68C762.32,-268.48 826.65,-258.7 864.27,-252.98"/>
</g>
<!-- mo_act -->
<g id="node46" class="node">
<title>mo_act</title>
<ellipse fill="#dceefb" stroke="black" cx="895.43" cy="-313.4" rx="36.97" ry="14.4"/>
<text xml:space="preserve" text-anchor="middle" x="895.43" y="-309.52" font-family="Helvetica,sans-Serif" font-size="10.00">is_active</text>
</g>
<!-- MemberOf&#45;&#45;mo_act -->
<g id="edge39" class="edge">
<title>MemberOf&#45;&#45;mo_act</title>
<path fill="none" stroke="#8892a0" d="M721.02,-286.22C760.58,-292.42 822.61,-302.14 860.77,-308.12"/>
</g>
<!-- HostedAt&#45;&#45;Venue -->
<g id="edge41" class="edge">
<title>HostedAt&#45;&#45;Venue</title>
<path fill="none" stroke="#8892a0" d="M730.6,-763.4C768.03,-763.4 819.96,-763.4 855.25,-763.4"/>
<text xml:space="preserve" text-anchor="middle" x="802.71" y="-764.6" font-family="Helvetica,sans-Serif" font-size="9.00" fill="#8a4b00">(0,N)</text>
</g>
<!-- FiledBy&#45;&#45;Party -->
<g id="edge43" class="edge">
<title>FiledBy&#45;&#45;Party</title>
<path fill="none" stroke="#8892a0" d="M295.72,-1021.19C334.27,-1024.79 391.89,-1030.17 430.02,-1033.73"/>
<text xml:space="preserve" text-anchor="middle" x="377.57" y="-1030.39" font-family="Helvetica,sans-Serif" font-size="9.00" fill="#8a4b00">(0,N)</text>
</g>
<!-- Covers&#45;&#45;Gig -->
<g id="edge45" class="edge">
<title>Covers&#45;&#45;Gig</title>
<path fill="none" stroke="#8892a0" d="M292.98,-867.93C331.52,-862.35 391.04,-853.73 430.08,-848.08"/>
<text xml:space="preserve" text-anchor="middle" x="377.57" y="-858.17" font-family="Helvetica,sans-Serif" font-size="9.00" fill="#8a4b00">(0,N)</text>
</g>
</g>
</svg>
